<?xml version="1.0" encoding="UTF-8" standalone="no"?>
<svg width="22px" height="20px" viewBox="0 0 22 20" version="1.1" xmlns="http://www.w3.org/2000/svg" xmlns:xlink="http://www.w3.org/1999/xlink">
    <g id="Symbols" stroke="none" stroke-width="1" fill="none" fill-rule="evenodd">
        <g id="Nav.1-1" transform="translate(-24.000000, -17.000000)" fill="#FFFFFF">
            <g id="Nav.-1-1">
                <g id="Group" transform="translate(0.000000, 2.000000)">
                    <path d="M34.0000119,24.8571343 C34.0000119,26.4307969 32.7165282,27.7142806 31.1428657,27.7142806 C29.5692031,27.7142806 28.2857194,26.4307969 28.2857194,24.8571343 C28.2857194,23.2834718 29.5692031,21.9999881 31.1428657,21.9999881 C32.7165282,21.9999881 34.0000119,23.2834718 34.0000119,24.8571343 L34.0000119,24.8571343 Z M42.5714507,30.5714269 C42.5714507,31.3526778 41.9352892,32 41.1428776,32 C40.3616266,32 39.7143044,31.3638385 39.7143044,30.5714269 C39.7143044,29.7901759 40.3616266,29.1428537 41.1428776,29.1428537 C41.9241285,29.1428537 42.5714507,29.7901759 42.5714507,30.5714269 L42.5714507,30.5714269 Z M42.5714507,19.1428418 C42.5714507,19.9240927 41.9352892,20.5714149 41.1428776,20.5714149 C40.3616266,20.5714149 39.7143044,19.9352535 39.7143044,19.1428418 C39.7143044,18.3615909 40.3616266,17.7142687 41.1428776,17.7142687 C41.9241285,17.7142687 42.5714507,18.3615909 42.5714507,19.1428418 L42.5714507,19.1428418 Z M38.2857313,23.8415081 C38.2857313,23.6852579 38.174124,23.5401685 38.0178739,23.5066863 L36.3214433,23.2499896 C36.2209967,22.9374892 36.087068,22.6361496 35.9419785,22.3348099 C36.2544789,21.8995415 36.5893007,21.4977553 36.9129618,21.062487 C36.9576047,20.9955226 36.9910869,20.9285582 36.9910869,20.8504331 C36.9910869,20.5379328 35.6741211,19.3325742 35.3839421,19.0647167 C35.3169778,19.0089131 35.2388527,18.9754309 35.1495669,18.9754309 C35.0714418,18.9754309 34.9933167,18.9977524 34.9263523,19.053556 L33.6093865,20.0468608 C33.341529,19.912932 33.0625108,19.790164 32.7723319,19.7008782 L32.5156352,17.9932869 C32.4933137,17.8370367 32.3370635,17.7142687 32.1808133,17.7142687 L30.104918,17.7142687 C29.9486678,17.7142687 29.8147391,17.825876 29.7700962,17.9821261 C29.6250067,18.5290018 29.5692031,19.1428418 29.5133994,19.7008782 C29.2120598,19.8013247 28.9330416,19.912932 28.6540234,20.0580215 L27.3705397,19.053556 C27.3035754,19.0089131 27.2254503,18.9754309 27.1361645,18.9754309 C26.8125034,18.9754309 25.5625019,20.3258789 25.3392873,20.6272186 C25.2834837,20.694183 25.2611622,20.772308 25.2611622,20.8504331 C25.2611622,20.9285582 25.2946444,21.0066833 25.3392873,21.0736477 C25.6964306,21.4977553 26.0312524,21.9107023 26.3437528,22.3571314 C26.1986633,22.6361496 26.0758953,22.9151677 25.9866095,23.2053467 L24.2566967,23.4732041 C24.1116073,23.4955256 24,23.6629365 24,23.8080259 L24,25.8727606 C24,26.0290107 24.1116073,26.1741002 24.2678575,26.1964217 L25.9642881,26.4642791 C26.0647346,26.7767795 26.1986633,27.0781191 26.3549135,27.3794588 C26.0312524,27.8147272 25.6964306,28.2276741 25.3727695,28.6517817 C25.3281266,28.7187461 25.2946444,28.7857105 25.2946444,28.8638355 C25.2946444,29.1874966 26.6116103,30.3816945 26.9017892,30.649552 C26.9687535,30.7053556 27.0468786,30.7388378 27.1361645,30.7388378 C27.2142895,30.7388378 27.3035754,30.7165163 27.359379,30.6607127 L28.6763449,29.6674079 C28.9442023,29.8013367 29.2232205,29.9241047 29.5133994,30.0133905 L29.7700962,31.7209818 C29.7924176,31.877232 29.9486678,32 30.104918,32 L32.1808133,32 C32.3370635,32 32.4709922,31.8883927 32.5156352,31.7321425 C32.6607246,31.1852669 32.7165282,30.5714269 32.7723319,30.0022298 C33.0736715,29.9129439 33.3526897,29.8013367 33.6317079,29.6562472 L34.9151916,30.6607127 C34.9821559,30.7053556 35.060281,30.7388378 35.1495669,30.7388378 C35.473228,30.7388378 36.7232295,29.377229 36.946444,29.0758894 C37.0022476,29.0200857 37.0245691,28.9419606 37.0245691,28.8638355 C37.0245691,28.7745497 36.9910869,28.7075854 36.946444,28.640621 C36.5893007,28.2165133 36.2544789,27.8035664 35.9419785,27.3571373 C36.087068,27.0781191 36.209836,26.7991009 36.2991218,26.508922 L38.0290346,26.2410646 C38.174124,26.2187431 38.2857313,26.0513322 38.2857313,25.9062427 L38.2857313,23.8415081 Z M45.428597,29.7901759 C45.428597,29.622765 43.9888631,29.4665148 43.7656486,29.4441934 C43.6763627,29.2433003 43.5647555,29.0424072 43.4308267,28.8638355 C43.5312733,28.640621 44.0000238,27.5245482 44.0000238,27.3236551 C44.0000238,27.3013337 43.9888631,27.2678515 43.9553809,27.24553 C43.8214522,27.167405 42.6272543,26.4642791 42.5714507,26.4642791 L42.5044863,26.4866006 C42.1250216,26.8660653 41.7901998,27.3013337 41.4776994,27.7366021 C41.3660921,27.7254413 41.2544849,27.7142806 41.1428776,27.7142806 C41.0312703,27.7142806 40.919663,27.7254413 40.8080558,27.7366021 C40.6964485,27.5691911 39.8593939,26.4642791 39.7143044,26.4642791 C39.6585008,26.4642791 38.464303,27.1785657 38.3303742,27.24553 C38.296892,27.2678515 38.2857313,27.3013337 38.2857313,27.3236551 C38.2857313,27.5133875 38.7544819,28.640621 38.8549284,28.8638355 C38.7209997,29.0424072 38.6093924,29.2433003 38.5201066,29.4441934 C38.296892,29.4665148 36.8571582,29.622765 36.8571582,29.7901759 L36.8571582,31.3526778 C36.8571582,31.5200887 38.296892,31.6763389 38.5201066,31.6986604 C38.6093924,31.9107142 38.7209997,32.1004465 38.8549284,32.2790182 C38.7544819,32.5022327 38.2857313,33.6294662 38.2857313,33.8191986 C38.2857313,33.8415201 38.296892,33.8750022 38.3303742,33.8973237 C38.464303,33.9754488 39.6585008,34.6897353 39.7143044,34.6897353 C39.8593939,34.6897353 40.6964485,33.5736626 40.8080558,33.4062517 C40.919663,33.4174124 41.0312703,33.4285731 41.1428776,33.4285731 C41.2544849,33.4285731 41.3660921,33.4174124 41.4776994,33.4062517 C41.5893067,33.5736626 42.4263613,34.6897353 42.5714507,34.6897353 C42.6272543,34.6897353 43.8214522,33.9754488 43.9553809,33.8973237 C43.9888631,33.8750022 44.0000238,33.8526808 44.0000238,33.8191986 C44.0000238,33.6183055 43.5312733,32.5022327 43.4308267,32.2790182 C43.5647555,32.1004465 43.6763627,31.9107142 43.7656486,31.6986604 C43.9888631,31.6763389 45.428597,31.5200887 45.428597,31.3526778 L45.428597,29.7901759 Z M45.428597,18.3615909 C45.428597,18.19418 43.9888631,18.0379298 43.7656486,18.0156083 C43.6763627,17.8147152 43.5647555,17.6138221 43.4308267,17.4352505 C43.5312733,17.2120359 44.0000238,16.0959632 44.0000238,15.8950701 C44.0000238,15.8727486 43.9888631,15.8392664 43.9553809,15.816945 C43.8214522,15.7388199 42.6272543,15.0356941 42.5714507,15.0356941 L42.5044863,15.0580155 C42.1250216,15.4374803 41.7901998,15.8727486 41.4776994,16.308017 C41.3660921,16.2968563 41.2544849,16.2856956 41.1428776,16.2856956 C41.0312703,16.2856956 40.919663,16.2968563 40.8080558,16.308017 C40.6964485,16.1406061 39.8593939,15.0356941 39.7143044,15.0356941 C39.6585008,15.0356941 38.464303,15.7499806 38.3303742,15.816945 C38.296892,15.8392664 38.2857313,15.8727486 38.2857313,15.8950701 C38.2857313,16.0848025 38.7544819,17.2120359 38.8549284,17.4352505 C38.7209997,17.6138221 38.6093924,17.8147152 38.5201066,18.0156083 C38.296892,18.0379298 36.8571582,18.19418 36.8571582,18.3615909 L36.8571582,19.9240927 C36.8571582,20.0915037 38.296892,20.2477538 38.5201066,20.2700753 C38.6093924,20.4821291 38.7209997,20.6718615 38.8549284,20.8504331 C38.7544819,21.0736477 38.2857313,22.2008812 38.2857313,22.3906135 C38.2857313,22.412935 38.296892,22.4464172 38.3303742,22.4687386 C38.464303,22.5468637 39.6585008,23.2611503 39.7143044,23.2611503 C39.8593939,23.2611503 40.6964485,22.1450775 40.8080558,21.9776666 C40.919663,21.9888274 41.0312703,21.9999881 41.1428776,21.9999881 C41.2544849,21.9999881 41.3660921,21.9888274 41.4776994,21.9776666 C41.5893067,22.1450775 42.4263613,23.2611503 42.5714507,23.2611503 C42.6272543,23.2611503 43.8214522,22.5468637 43.9553809,22.4687386 C43.9888631,22.4464172 44.0000238,22.4240957 44.0000238,22.3906135 C44.0000238,22.1897204 43.5312733,21.0736477 43.4308267,20.8504331 C43.5647555,20.6718615 43.6763627,20.4821291 43.7656486,20.2700753 C43.9888631,20.2477538 45.428597,20.0915037 45.428597,19.9240927 L45.428597,18.3615909 Z" id=""></path>
                </g>
            </g>
        </g>
    </g>
</svg>
