<?xml version="1.0" encoding="UTF-8" standalone="no"?>
<!DOCTYPE svg PUBLIC "-//W3C//DTD SVG 1.1//EN"
 "http://www.w3.org/Graphics/SVG/1.1/DTD/svg11.dtd">
<!-- Generated by graphviz version 2.40.1 (20161225.0304)
 -->
<!-- Title: dependencies Pages: 1 -->
<svg width="942pt" height="284pt"
 viewBox="0.00 0.00 942.00 284.00" xmlns="http://www.w3.org/2000/svg" xmlns:xlink="http://www.w3.org/1999/xlink">
<g id="graph0" class="graph" transform="scale(1 1) rotate(0) translate(4 280)">
<title>dependencies</title>
<polygon fill="#ffffff" stroke="transparent" points="-4,4 -4,-280 938,-280 938,4 -4,4"/>
<text text-anchor="start" x="446.0091" y="-42.4" font-family="sans-serif" font-weight="bold" font-size="14.00" fill="#000000">Legend</text>
<polygon fill="#ffffb3" stroke="transparent" points="233,-10 233,-30 253,-30 253,-10 233,-10"/>
<text text-anchor="start" x="256.629" y="-15.4" font-family="sans-serif" font-size="14.00" fill="#000000"> &#160;Declarations</text>
<polygon fill="#8dd3c7" stroke="transparent" points="346,-10 346,-30 366,-30 366,-10 346,-10"/>
<text text-anchor="start" x="369.7251" y="-15.4" font-family="sans-serif" font-size="14.00" fill="#000000"> &#160;Module</text>
<polygon fill="#80b1d3" stroke="transparent" points="432,-10 432,-30 452,-30 452,-10 432,-10"/>
<text text-anchor="start" x="455.7812" y="-15.4" font-family="sans-serif" font-size="14.00" fill="#000000"> &#160;Bootstrap</text>
<polygon fill="#fdb462" stroke="transparent" points="529,-10 529,-30 549,-30 549,-10 529,-10"/>
<text text-anchor="start" x="552.6732" y="-15.4" font-family="sans-serif" font-size="14.00" fill="#000000"> &#160;Providers</text>
<polygon fill="#fb8072" stroke="transparent" points="625,-10 625,-30 645,-30 645,-10 625,-10"/>
<text text-anchor="start" x="648.7258" y="-15.4" font-family="sans-serif" font-size="14.00" fill="#000000"> &#160;Exports</text>
<g id="clust1" class="cluster">
<title>cluster_SharedModule</title>
<polygon fill="none" stroke="#000000" stroke-dasharray="1,5" points="8,-70 8,-268 926,-268 926,-70 8,-70"/>
</g>
<g id="clust2" class="cluster">
<title>cluster_SharedModule_declarations</title>
<polygon fill="none" stroke="#000000" points="26,-78 26,-130 908,-130 908,-78 26,-78"/>
</g>
<g id="clust10" class="cluster">
<title>cluster_SharedModule_exports</title>
<polygon fill="none" stroke="#000000" points="16,-208 16,-260 918,-260 918,-208 16,-208"/>
</g>
<!-- PageFooterComponent -->
<g id="node1" class="node">
<title>PageFooterComponent</title>
<polygon fill="#ffffb3" stroke="#000000" points="899.5926,-122 754.4074,-122 754.4074,-86 899.5926,-86 899.5926,-122"/>
<text text-anchor="middle" x="827" y="-99.8" font-family="Times,serif" font-size="14.00" fill="#000000">PageFooterComponent</text>
</g>
<!-- SharedModule -->
<g id="node7" class="node">
<title>SharedModule</title>
<polygon fill="#8dd3c7" stroke="#000000" points="423.4231,-187 420.4231,-191 399.4231,-191 396.4231,-187 324.5769,-187 324.5769,-151 423.4231,-151 423.4231,-187"/>
<text text-anchor="middle" x="374" y="-164.8" font-family="Times,serif" font-size="14.00" fill="#000000">SharedModule</text>
</g>
<!-- PageFooterComponent&#45;&gt;SharedModule -->
<g id="edge1" class="edge">
<title>PageFooterComponent&#45;&gt;SharedModule</title>
<path fill="none" stroke="#000000" d="M758.0787,-122.2222C758.0787,-140.8285 758.0787,-167 758.0787,-167 758.0787,-167 433.4253,-167 433.4253,-167"/>
<polygon fill="#000000" stroke="#000000" points="433.4253,-163.5001 423.4253,-167 433.4253,-170.5001 433.4253,-163.5001"/>
</g>
<!-- CollapseDirective -->
<g id="node2" class="node">
<title>CollapseDirective</title>
<polygon fill="#ffffb3" stroke="#000000" points="736.5744,-122 619.4256,-122 619.4256,-86 736.5744,-86 736.5744,-122"/>
<text text-anchor="middle" x="678" y="-99.8" font-family="Times,serif" font-size="14.00" fill="#000000">CollapseDirective</text>
</g>
<!-- CollapseDirective&#45;&gt;SharedModule -->
<g id="edge2" class="edge">
<title>CollapseDirective&#45;&gt;SharedModule</title>
<path fill="none" stroke="#000000" d="M678,-122.0336C678,-139.0597 678,-162 678,-162 678,-162 433.5194,-162 433.5194,-162"/>
<polygon fill="#000000" stroke="#000000" points="433.5195,-158.5001 423.5194,-162 433.5194,-165.5001 433.5195,-158.5001"/>
</g>
<!-- MenuBarComponent -->
<g id="node3" class="node">
<title>MenuBarComponent</title>
<polygon fill="#ffffb3" stroke="#000000" points="601.2036,-122 466.7964,-122 466.7964,-86 601.2036,-86 601.2036,-122"/>
<text text-anchor="middle" x="534" y="-99.8" font-family="Times,serif" font-size="14.00" fill="#000000">MenuBarComponent</text>
</g>
<!-- MenuBarComponent&#45;&gt;SharedModule -->
<g id="edge3" class="edge">
<title>MenuBarComponent&#45;&gt;SharedModule</title>
<path fill="none" stroke="#000000" d="M519.5928,-122.2396C519.5928,-137.5706 519.5928,-157 519.5928,-157 519.5928,-157 433.2911,-157 433.2911,-157"/>
<polygon fill="#000000" stroke="#000000" points="433.2911,-153.5001 423.2911,-157 433.291,-160.5001 433.2911,-153.5001"/>
</g>
<!-- PageHeaderComponent -->
<g id="node4" class="node">
<title>PageHeaderComponent</title>
<polygon fill="#ffffb3" stroke="#000000" points="448.4552,-122 299.5448,-122 299.5448,-86 448.4552,-86 448.4552,-122"/>
<text text-anchor="middle" x="374" y="-99.8" font-family="Times,serif" font-size="14.00" fill="#000000">PageHeaderComponent</text>
</g>
<!-- PageHeaderComponent&#45;&gt;SharedModule -->
<g id="edge4" class="edge">
<title>PageHeaderComponent&#45;&gt;SharedModule</title>
<path fill="none" stroke="#000000" d="M374,-122.1061C374,-122.1061 374,-140.991 374,-140.991"/>
<polygon fill="#000000" stroke="#000000" points="370.5001,-140.9909 374,-150.991 377.5001,-140.991 370.5001,-140.9909"/>
</g>
<!-- FieldErrorComponent -->
<g id="node5" class="node">
<title>FieldErrorComponent</title>
<polygon fill="#ffffb3" stroke="#000000" points="281.6456,-122 142.3544,-122 142.3544,-86 281.6456,-86 281.6456,-122"/>
<text text-anchor="middle" x="212" y="-99.8" font-family="Times,serif" font-size="14.00" fill="#000000">FieldErrorComponent</text>
</g>
<!-- FieldErrorComponent&#45;&gt;SharedModule -->
<g id="edge5" class="edge">
<title>FieldErrorComponent&#45;&gt;SharedModule</title>
<path fill="none" stroke="#000000" d="M233.1075,-122.0091C233.1075,-138.0494 233.1075,-159 233.1075,-159 233.1075,-159 314.7227,-159 314.7227,-159"/>
<polygon fill="#000000" stroke="#000000" points="314.7227,-162.5001 324.7227,-159 314.7226,-155.5001 314.7227,-162.5001"/>
</g>
<!-- MessagePipe -->
<g id="node6" class="node">
<title>MessagePipe</title>
<polygon fill="#ffffb3" stroke="#000000" points="123.8655,-122 34.1345,-122 34.1345,-86 123.8655,-86 123.8655,-122"/>
<text text-anchor="middle" x="79" y="-99.8" font-family="Times,serif" font-size="14.00" fill="#000000">MessagePipe</text>
</g>
<!-- MessagePipe&#45;&gt;SharedModule -->
<g id="edge6" class="edge">
<title>MessagePipe&#45;&gt;SharedModule</title>
<path fill="none" stroke="#000000" d="M89.8109,-122.2667C89.8109,-140.5552 89.8109,-166 89.8109,-166 89.8109,-166 314.498,-166 314.498,-166"/>
<polygon fill="#000000" stroke="#000000" points="314.4981,-169.5001 324.498,-166 314.498,-162.5001 314.4981,-169.5001"/>
</g>
<!-- PageFooterComponent  -->
<g id="node8" class="node">
<title>PageFooterComponent </title>
<polygon fill="#fb8072" stroke="#000000" points="910.0932,-252 761.9068,-252 761.9068,-216 910.0932,-216 910.0932,-252"/>
<text text-anchor="middle" x="836" y="-229.8" font-family="Times,serif" font-size="14.00" fill="#000000">PageFooterComponent </text>
</g>
<!-- SharedModule&#45;&gt;PageFooterComponent  -->
<g id="edge7" class="edge">
<title>SharedModule&#45;&gt;PageFooterComponent </title>
<path fill="none" stroke="#000000" stroke-dasharray="5,2" d="M423.3007,-172C541.3739,-172 830.625,-172 830.625,-172 830.625,-172 830.625,-205.7333 830.625,-205.7333"/>
<polygon fill="#000000" stroke="#000000" points="827.1251,-205.7333 830.625,-215.7333 834.1251,-205.7333 827.1251,-205.7333"/>
</g>
<!-- PageHeaderComponent  -->
<g id="node9" class="node">
<title>PageHeaderComponent </title>
<polygon fill="#fb8072" stroke="#000000" points="743.4559,-252 590.5441,-252 590.5441,-216 743.4559,-216 743.4559,-252"/>
<text text-anchor="middle" x="667" y="-229.8" font-family="Times,serif" font-size="14.00" fill="#000000">PageHeaderComponent </text>
</g>
<!-- SharedModule&#45;&gt;PageHeaderComponent  -->
<g id="edge8" class="edge">
<title>SharedModule&#45;&gt;PageHeaderComponent </title>
<path fill="none" stroke="#000000" stroke-dasharray="5,2" d="M423.255,-177C488.6395,-177 595.9371,-177 595.9371,-177 595.9371,-177 595.9371,-205.9648 595.9371,-205.9648"/>
<polygon fill="#000000" stroke="#000000" points="592.4371,-205.9648 595.9371,-215.9648 599.4371,-205.9649 592.4371,-205.9648"/>
</g>
<!-- CollapseDirective  -->
<g id="node10" class="node">
<title>CollapseDirective </title>
<polygon fill="#fb8072" stroke="#000000" points="572.0751,-252 451.9249,-252 451.9249,-216 572.0751,-216 572.0751,-252"/>
<text text-anchor="middle" x="512" y="-229.8" font-family="Times,serif" font-size="14.00" fill="#000000">CollapseDirective </text>
</g>
<!-- SharedModule&#45;&gt;CollapseDirective  -->
<g id="edge9" class="edge">
<title>SharedModule&#45;&gt;CollapseDirective </title>
<path fill="none" stroke="#000000" stroke-dasharray="5,2" d="M423.6226,-182C442.3892,-182 459.3056,-182 459.3056,-182 459.3056,-182 459.3056,-205.8129 459.3056,-205.8129"/>
<polygon fill="#000000" stroke="#000000" points="455.8056,-205.8129 459.3056,-215.8129 462.8056,-205.813 455.8056,-205.8129"/>
</g>
<!-- MenuBarComponent  -->
<g id="node11" class="node">
<title>MenuBarComponent </title>
<polygon fill="#fb8072" stroke="#000000" points="433.7037,-252 296.2963,-252 296.2963,-216 433.7037,-216 433.7037,-252"/>
<text text-anchor="middle" x="365" y="-229.8" font-family="Times,serif" font-size="14.00" fill="#000000">MenuBarComponent </text>
</g>
<!-- SharedModule&#45;&gt;MenuBarComponent  -->
<g id="edge10" class="edge">
<title>SharedModule&#45;&gt;MenuBarComponent </title>
<path fill="none" stroke="#000000" stroke-dasharray="5,2" d="M374,-187.1061C374,-187.1061 374,-205.991 374,-205.991"/>
<polygon fill="#000000" stroke="#000000" points="370.5001,-205.9909 374,-215.991 377.5001,-205.991 370.5001,-205.9909"/>
</g>
<!-- FieldErrorComponent  -->
<g id="node12" class="node">
<title>FieldErrorComponent </title>
<polygon fill="#fb8072" stroke="#000000" points="278.6453,-252 135.3547,-252 135.3547,-216 278.6453,-216 278.6453,-252"/>
<text text-anchor="middle" x="207" y="-229.8" font-family="Times,serif" font-size="14.00" fill="#000000">FieldErrorComponent </text>
</g>
<!-- SharedModule&#45;&gt;FieldErrorComponent  -->
<g id="edge11" class="edge">
<title>SharedModule&#45;&gt;FieldErrorComponent </title>
<path fill="none" stroke="#000000" stroke-dasharray="5,2" d="M324.5489,-180C269.3395,-180 187.6425,-180 187.6425,-180 187.6425,-180 187.6425,-205.7181 187.6425,-205.7181"/>
<polygon fill="#000000" stroke="#000000" points="184.1426,-205.718 187.6425,-215.7181 191.1426,-205.7181 184.1426,-205.718"/>
</g>
<!-- MessagePipe  -->
<g id="node13" class="node">
<title>MessagePipe </title>
<polygon fill="#fb8072" stroke="#000000" points="117.8661,-252 24.1339,-252 24.1339,-216 117.8661,-216 117.8661,-252"/>
<text text-anchor="middle" x="71" y="-229.8" font-family="Times,serif" font-size="14.00" fill="#000000">MessagePipe </text>
</g>
<!-- SharedModule&#45;&gt;MessagePipe  -->
<g id="edge12" class="edge">
<title>SharedModule&#45;&gt;MessagePipe </title>
<path fill="none" stroke="#000000" stroke-dasharray="5,2" d="M324.553,-173C236.5603,-173 61.9391,-173 61.9391,-173 61.9391,-173 61.9391,-205.698 61.9391,-205.698"/>
<polygon fill="#000000" stroke="#000000" points="58.4392,-205.698 61.9391,-215.698 65.4392,-205.698 58.4392,-205.698"/>
</g>
</g>
</svg>
