<?xml version="1.0" encoding="UTF-8" standalone="no"?>
<!DOCTYPE svg PUBLIC "-//W3C//DTD SVG 1.1//EN"
 "http://www.w3.org/Graphics/SVG/1.1/DTD/svg11.dtd">
<!-- Generated by graphviz version 2.40.1 (20161225.0304)
 -->
<!-- Title: dependencies Pages: 1 -->
<svg width="942pt" height="284pt"
 viewBox="0.00 0.00 942.00 284.00" xmlns="http://www.w3.org/2000/svg" xmlns:xlink="http://www.w3.org/1999/xlink">
<g id="graph0" class="graph" transform="scale(1 1) rotate(0) translate(4 280)">
<title>dependencies</title>
<polygon fill="#ffffff" stroke="transparent" points="-4,4 -4,-280 938,-280 938,4 -4,4"/>
<text text-anchor="start" x="446.0091" y="-42.4" font-family="sans-serif" font-weight="bold" font-size="14.00" fill="#000000">Legend</text>
<polygon fill="#ffffb3" stroke="transparent" points="233,-10 233,-30 253,-30 253,-10 233,-10"/>
<text text-anchor="start" x="256.629" y="-15.4" font-family="sans-serif" font-size="14.00" fill="#000000"> &#160;Declarations</text>
<polygon fill="#8dd3c7" stroke="transparent" points="346,-10 346,-30 366,-30 366,-10 346,-10"/>
<text text-anchor="start" x="369.7251" y="-15.4" font-family="sans-serif" font-size="14.00" fill="#000000"> &#160;Module</text>
<polygon fill="#80b1d3" stroke="transparent" points="432,-10 432,-30 452,-30 452,-10 432,-10"/>
<text text-anchor="start" x="455.7812" y="-15.4" font-family="sans-serif" font-size="14.00" fill="#000000"> &#160;Bootstrap</text>
<polygon fill="#fdb462" stroke="transparent" points="529,-10 529,-30 549,-30 549,-10 529,-10"/>
<text text-anchor="start" x="552.6732" y="-15.4" font-family="sans-serif" font-size="14.00" fill="#000000"> &#160;Providers</text>
<polygon fill="#fb8072" stroke="transparent" points="625,-10 625,-30 645,-30 645,-10 625,-10"/>
<text text-anchor="start" x="648.7258" y="-15.4" font-family="sans-serif" font-size="14.00" fill="#000000"> &#160;Exports</text>
<g id="clust1" class="cluster">
<title>cluster_SharedModule</title>
<polygon fill="none" stroke="#000000" stroke-dasharray="1,5" points="8,-70 8,-268 926,-268 926,-70 8,-70"/>
</g>
<g id="clust2" class="cluster">
<title>cluster_SharedModule_declarations</title>
<polygon fill="none" stroke="#000000" points="29,-78 29,-130 909,-130 909,-78 29,-78"/>
</g>
<g id="clust10" class="cluster">
<title>cluster_SharedModule_exports</title>
<polygon fill="none" stroke="#000000" points="16,-208 16,-260 918,-260 918,-208 16,-208"/>
</g>
<!-- CollapseDirective -->
<g id="node1" class="node">
<title>CollapseDirective</title>
<polygon fill="#ffffb3" stroke="#000000" points="900.5744,-122 783.4256,-122 783.4256,-86 900.5744,-86 900.5744,-122"/>
<text text-anchor="middle" x="842" y="-99.8" font-family="Times,serif" font-size="14.00" fill="#000000">CollapseDirective</text>
</g>
<!-- SharedModule -->
<g id="node7" class="node">
<title>SharedModule</title>
<polygon fill="#8dd3c7" stroke="#000000" points="465.4231,-187 462.4231,-191 441.4231,-191 438.4231,-187 366.5769,-187 366.5769,-151 465.4231,-151 465.4231,-187"/>
<text text-anchor="middle" x="416" y="-164.8" font-family="Times,serif" font-size="14.00" fill="#000000">SharedModule</text>
</g>
<!-- CollapseDirective&#45;&gt;SharedModule -->
<g id="edge1" class="edge">
<title>CollapseDirective&#45;&gt;SharedModule</title>
<path fill="none" stroke="#000000" d="M863.5957,-122.2667C863.5957,-140.5552 863.5957,-166 863.5957,-166 863.5957,-166 475.6107,-166 475.6107,-166"/>
<polygon fill="#000000" stroke="#000000" points="475.6108,-162.5001 465.6107,-166 475.6107,-169.5001 475.6108,-162.5001"/>
</g>
<!-- FieldErrorComponent -->
<g id="node2" class="node">
<title>FieldErrorComponent</title>
<polygon fill="#ffffb3" stroke="#000000" points="765.6456,-122 626.3544,-122 626.3544,-86 765.6456,-86 765.6456,-122"/>
<text text-anchor="middle" x="696" y="-99.8" font-family="Times,serif" font-size="14.00" fill="#000000">FieldErrorComponent</text>
</g>
<!-- FieldErrorComponent&#45;&gt;SharedModule -->
<g id="edge2" class="edge">
<title>FieldErrorComponent&#45;&gt;SharedModule</title>
<path fill="none" stroke="#000000" d="M720.0242,-122.0091C720.0242,-138.0494 720.0242,-159 720.0242,-159 720.0242,-159 475.5234,-159 475.5234,-159"/>
<polygon fill="#000000" stroke="#000000" points="475.5234,-155.5001 465.5234,-159 475.5233,-162.5001 475.5234,-155.5001"/>
</g>
<!-- MenuBarComponent -->
<g id="node3" class="node">
<title>MenuBarComponent</title>
<polygon fill="#ffffb3" stroke="#000000" points="608.2036,-122 473.7964,-122 473.7964,-86 608.2036,-86 608.2036,-122"/>
<text text-anchor="middle" x="541" y="-99.8" font-family="Times,serif" font-size="14.00" fill="#000000">MenuBarComponent</text>
</g>
<!-- MenuBarComponent&#45;&gt;SharedModule -->
<g id="edge3" class="edge">
<title>MenuBarComponent&#45;&gt;SharedModule</title>
<path fill="none" stroke="#000000" d="M473.853,-104C465.9177,-104 460.5719,-104 460.5719,-104 460.5719,-104 460.5719,-140.8939 460.5719,-140.8939"/>
<polygon fill="#000000" stroke="#000000" points="457.072,-140.8938 460.5719,-150.8939 464.072,-140.8939 457.072,-140.8938"/>
</g>
<!-- MessagePipe -->
<g id="node4" class="node">
<title>MessagePipe</title>
<polygon fill="#ffffb3" stroke="#000000" points="455.8655,-122 366.1345,-122 366.1345,-86 455.8655,-86 455.8655,-122"/>
<text text-anchor="middle" x="411" y="-99.8" font-family="Times,serif" font-size="14.00" fill="#000000">MessagePipe</text>
</g>
<!-- MessagePipe&#45;&gt;SharedModule -->
<g id="edge4" class="edge">
<title>MessagePipe&#45;&gt;SharedModule</title>
<path fill="none" stroke="#000000" d="M411.3608,-122.1061C411.3608,-122.1061 411.3608,-140.991 411.3608,-140.991"/>
<polygon fill="#000000" stroke="#000000" points="407.8609,-140.9909 411.3608,-150.991 414.8609,-140.991 407.8609,-140.9909"/>
</g>
<!-- PageFooterComponent -->
<g id="node5" class="node">
<title>PageFooterComponent</title>
<polygon fill="#ffffb3" stroke="#000000" points="348.5926,-122 203.4074,-122 203.4074,-86 348.5926,-86 348.5926,-122"/>
<text text-anchor="middle" x="276" y="-99.8" font-family="Times,serif" font-size="14.00" fill="#000000">PageFooterComponent</text>
</g>
<!-- PageFooterComponent&#45;&gt;SharedModule -->
<g id="edge5" class="edge">
<title>PageFooterComponent&#45;&gt;SharedModule</title>
<path fill="none" stroke="#000000" d="M296.6821,-122.0091C296.6821,-138.0494 296.6821,-159 296.6821,-159 296.6821,-159 356.78,-159 356.78,-159"/>
<polygon fill="#000000" stroke="#000000" points="356.78,-162.5001 366.78,-159 356.7799,-155.5001 356.78,-162.5001"/>
</g>
<!-- PageHeaderComponent -->
<g id="node6" class="node">
<title>PageHeaderComponent</title>
<polygon fill="#ffffb3" stroke="#000000" points="185.4552,-122 36.5448,-122 36.5448,-86 185.4552,-86 185.4552,-122"/>
<text text-anchor="middle" x="111" y="-99.8" font-family="Times,serif" font-size="14.00" fill="#000000">PageHeaderComponent</text>
</g>
<!-- PageHeaderComponent&#45;&gt;SharedModule -->
<g id="edge6" class="edge">
<title>PageHeaderComponent&#45;&gt;SharedModule</title>
<path fill="none" stroke="#000000" d="M180.8526,-122.2667C180.8526,-140.5552 180.8526,-166 180.8526,-166 180.8526,-166 356.7054,-166 356.7054,-166"/>
<polygon fill="#000000" stroke="#000000" points="356.7054,-169.5001 366.7054,-166 356.7054,-162.5001 356.7054,-169.5001"/>
</g>
<!-- CollapseDirective  -->
<g id="node8" class="node">
<title>CollapseDirective </title>
<polygon fill="#fb8072" stroke="#000000" points="910.0751,-252 789.9249,-252 789.9249,-216 910.0751,-216 910.0751,-252"/>
<text text-anchor="middle" x="850" y="-229.8" font-family="Times,serif" font-size="14.00" fill="#000000">CollapseDirective </text>
</g>
<!-- SharedModule&#45;&gt;CollapseDirective  -->
<g id="edge7" class="edge">
<title>SharedModule&#45;&gt;CollapseDirective </title>
<path fill="none" stroke="#000000" stroke-dasharray="5,2" d="M465.5345,-173C574.756,-173 826.6543,-173 826.6543,-173 826.6543,-173 826.6543,-205.698 826.6543,-205.698"/>
<polygon fill="#000000" stroke="#000000" points="823.1544,-205.698 826.6543,-215.698 830.1544,-205.698 823.1544,-205.698"/>
</g>
<!-- FieldErrorComponent  -->
<g id="node9" class="node">
<title>FieldErrorComponent </title>
<polygon fill="#fb8072" stroke="#000000" points="771.6453,-252 628.3547,-252 628.3547,-216 771.6453,-216 771.6453,-252"/>
<text text-anchor="middle" x="700" y="-229.8" font-family="Times,serif" font-size="14.00" fill="#000000">FieldErrorComponent </text>
</g>
<!-- SharedModule&#45;&gt;FieldErrorComponent  -->
<g id="edge8" class="edge">
<title>SharedModule&#45;&gt;FieldErrorComponent </title>
<path fill="none" stroke="#000000" stroke-dasharray="5,2" d="M465.483,-180C540.4632,-180 674.2258,-180 674.2258,-180 674.2258,-180 674.2258,-205.7181 674.2258,-205.7181"/>
<polygon fill="#000000" stroke="#000000" points="670.7259,-205.718 674.2258,-215.7181 677.7259,-205.7181 670.7259,-205.718"/>
</g>
<!-- MenuBarComponent  -->
<g id="node10" class="node">
<title>MenuBarComponent </title>
<polygon fill="#fb8072" stroke="#000000" points="610.7037,-252 473.2963,-252 473.2963,-216 610.7037,-216 610.7037,-252"/>
<text text-anchor="middle" x="542" y="-229.8" font-family="Times,serif" font-size="14.00" fill="#000000">MenuBarComponent </text>
</g>
<!-- SharedModule&#45;&gt;MenuBarComponent  -->
<g id="edge9" class="edge">
<title>SharedModule&#45;&gt;MenuBarComponent </title>
<path fill="none" stroke="#000000" stroke-dasharray="5,2" d="M459.9469,-187.1061C459.9469,-206.3391 459.9469,-234 459.9469,-234 459.9469,-234 463.1302,-234 463.1302,-234"/>
<polygon fill="#000000" stroke="#000000" points="463.1302,-237.5001 473.1302,-234 463.1301,-230.5001 463.1302,-237.5001"/>
</g>
<!-- MessagePipe  -->
<g id="node11" class="node">
<title>MessagePipe </title>
<polygon fill="#fb8072" stroke="#000000" points="454.8661,-252 361.1339,-252 361.1339,-216 454.8661,-216 454.8661,-252"/>
<text text-anchor="middle" x="408" y="-229.8" font-family="Times,serif" font-size="14.00" fill="#000000">MessagePipe </text>
</g>
<!-- SharedModule&#45;&gt;MessagePipe  -->
<g id="edge10" class="edge">
<title>SharedModule&#45;&gt;MessagePipe </title>
<path fill="none" stroke="#000000" stroke-dasharray="5,2" d="M410.7358,-187.1061C410.7358,-187.1061 410.7358,-205.991 410.7358,-205.991"/>
<polygon fill="#000000" stroke="#000000" points="407.2359,-205.9909 410.7358,-215.991 414.2359,-205.991 407.2359,-205.9909"/>
</g>
<!-- PageFooterComponent  -->
<g id="node12" class="node">
<title>PageFooterComponent </title>
<polygon fill="#fb8072" stroke="#000000" points="343.0932,-252 194.9068,-252 194.9068,-216 343.0932,-216 343.0932,-252"/>
<text text-anchor="middle" x="269" y="-229.8" font-family="Times,serif" font-size="14.00" fill="#000000">PageFooterComponent </text>
</g>
<!-- SharedModule&#45;&gt;PageFooterComponent  -->
<g id="edge11" class="edge">
<title>SharedModule&#45;&gt;PageFooterComponent </title>
<path fill="none" stroke="#000000" stroke-dasharray="5,2" d="M366.6642,-180C317.7519,-180 250.0679,-180 250.0679,-180 250.0679,-180 250.0679,-205.7181 250.0679,-205.7181"/>
<polygon fill="#000000" stroke="#000000" points="246.568,-205.718 250.0679,-215.7181 253.568,-205.7181 246.568,-205.718"/>
</g>
<!-- PageHeaderComponent  -->
<g id="node13" class="node">
<title>PageHeaderComponent </title>
<polygon fill="#fb8072" stroke="#000000" points="176.4559,-252 23.5441,-252 23.5441,-216 176.4559,-216 176.4559,-252"/>
<text text-anchor="middle" x="100" y="-229.8" font-family="Times,serif" font-size="14.00" fill="#000000">PageHeaderComponent </text>
</g>
<!-- SharedModule&#45;&gt;PageHeaderComponent  -->
<g id="edge12" class="edge">
<title>SharedModule&#45;&gt;PageHeaderComponent </title>
<path fill="none" stroke="#000000" stroke-dasharray="5,2" d="M366.5966,-173C279.1811,-173 106.375,-173 106.375,-173 106.375,-173 106.375,-205.698 106.375,-205.698"/>
<polygon fill="#000000" stroke="#000000" points="102.8751,-205.698 106.375,-215.698 109.8751,-205.698 102.8751,-205.698"/>
</g>
</g>
</svg>
