<?xml version="1.0" encoding="UTF-8" standalone="no"?>
<!DOCTYPE svg PUBLIC "-//W3C//DTD SVG 1.1//EN"
 "http://www.w3.org/Graphics/SVG/1.1/DTD/svg11.dtd">
<!-- Generated by graphviz version 2.40.1 (20161225.0304)
 -->
<!-- Title: dependencies Pages: 1 -->
<svg width="3389pt" height="366pt"
 viewBox="0.00 0.00 3389.00 366.00" xmlns="http://www.w3.org/2000/svg" xmlns:xlink="http://www.w3.org/1999/xlink">
<g id="graph0" class="graph" transform="scale(1 1) rotate(0) translate(4 362)">
<title>dependencies</title>
<polygon fill="#ffffff" stroke="transparent" points="-4,4 -4,-362 3385,-362 3385,4 -4,4"/>
<text text-anchor="start" x="1669.5091" y="-42.4" font-family="sans-serif" font-weight="bold" font-size="14.00" fill="#000000">Legend</text>
<polygon fill="#ffffb3" stroke="transparent" points="1456.5,-10 1456.5,-30 1476.5,-30 1476.5,-10 1456.5,-10"/>
<text text-anchor="start" x="1480.129" y="-15.4" font-family="sans-serif" font-size="14.00" fill="#000000"> &#160;Declarations</text>
<polygon fill="#8dd3c7" stroke="transparent" points="1569.5,-10 1569.5,-30 1589.5,-30 1589.5,-10 1569.5,-10"/>
<text text-anchor="start" x="1593.2251" y="-15.4" font-family="sans-serif" font-size="14.00" fill="#000000"> &#160;Module</text>
<polygon fill="#80b1d3" stroke="transparent" points="1655.5,-10 1655.5,-30 1675.5,-30 1675.5,-10 1655.5,-10"/>
<text text-anchor="start" x="1679.2812" y="-15.4" font-family="sans-serif" font-size="14.00" fill="#000000"> &#160;Bootstrap</text>
<polygon fill="#fdb462" stroke="transparent" points="1752.5,-10 1752.5,-30 1772.5,-30 1772.5,-10 1752.5,-10"/>
<text text-anchor="start" x="1776.1732" y="-15.4" font-family="sans-serif" font-size="14.00" fill="#000000"> &#160;Providers</text>
<polygon fill="#fb8072" stroke="transparent" points="1848.5,-10 1848.5,-30 1868.5,-30 1868.5,-10 1848.5,-10"/>
<text text-anchor="start" x="1872.2258" y="-15.4" font-family="sans-serif" font-size="14.00" fill="#000000"> &#160;Exports</text>
<g id="clust1" class="cluster">
<title>cluster_AppModule</title>
<polygon fill="none" stroke="#000000" stroke-dasharray="1,5" points="226,-146 226,-350 591,-350 591,-146 226,-146"/>
</g>
<g id="clust2" class="cluster">
<title>cluster_AppModule_declarations</title>
<polygon fill="none" stroke="#000000" points="234,-154 234,-206 356,-206 356,-154 234,-154"/>
</g>
<g id="clust4" class="cluster">
<title>cluster_AppModule_imports</title>
<polygon fill="none" stroke="#000000" points="364,-154 364,-206 583,-206 583,-154 364,-154"/>
</g>
<g id="clust6" class="cluster">
<title>cluster_AppModule_bootstrap</title>
<polygon fill="none" stroke="#000000" points="353,-290 353,-342 477,-342 477,-290 353,-290"/>
</g>
<g id="clust8" class="cluster">
<title>cluster_CoreModule</title>
<polygon fill="none" stroke="#000000" stroke-dasharray="1,5" points="8,-70 8,-138 808,-138 808,-70 8,-70"/>
</g>
<g id="clust13" class="cluster">
<title>cluster_CoreModule_providers</title>
<polygon fill="none" stroke="#000000" points="16,-78 16,-130 800,-130 800,-78 16,-78"/>
</g>
<g id="clust14" class="cluster">
<title>cluster_LoginModule</title>
<polygon fill="none" stroke="#000000" stroke-dasharray="1,5" points="2413,-146 2413,-274 2709,-274 2709,-146 2413,-146"/>
</g>
<g id="clust15" class="cluster">
<title>cluster_LoginModule_declarations</title>
<polygon fill="none" stroke="#000000" points="2571,-154 2571,-206 2701,-206 2701,-154 2571,-154"/>
</g>
<g id="clust20" class="cluster">
<title>cluster_LoginModule_providers</title>
<polygon fill="none" stroke="#000000" points="2421,-154 2421,-206 2563,-206 2563,-154 2421,-154"/>
</g>
<g id="clust21" class="cluster">
<title>cluster_ManageAppModule</title>
<polygon fill="none" stroke="#000000" stroke-dasharray="1,5" points="2717,-146 2717,-274 3373,-274 3373,-146 2717,-146"/>
</g>
<g id="clust22" class="cluster">
<title>cluster_ManageAppModule_declarations</title>
<polygon fill="none" stroke="#000000" points="2875,-154 2875,-206 3365,-206 3365,-154 2875,-154"/>
</g>
<g id="clust29" class="cluster">
<title>cluster_ManageAppModule_providers</title>
<polygon fill="none" stroke="#000000" points="2725,-154 2725,-206 2867,-206 2867,-154 2725,-154"/>
</g>
<g id="clust30" class="cluster">
<title>cluster_SharedModule</title>
<polygon fill="none" stroke="#000000" stroke-dasharray="1,5" points="599,-214 599,-282 2405,-282 2405,-214 599,-214"/>
</g>
<g id="clust31" class="cluster">
<title>cluster_SharedModule_declarations</title>
<polygon fill="none" stroke="#000000" points="1517,-222 1517,-274 2397,-274 2397,-222 1517,-222"/>
</g>
<g id="clust39" class="cluster">
<title>cluster_SharedModule_exports</title>
<polygon fill="none" stroke="#000000" points="607,-222 607,-274 1509,-274 1509,-222 607,-222"/>
</g>
<!-- AppComponent -->
<g id="node1" class="node">
<title>AppComponent</title>
<polygon fill="#ffffb3" stroke="#000000" points="347.9399,-198 242.0601,-198 242.0601,-162 347.9399,-162 347.9399,-198"/>
<text text-anchor="middle" x="295" y="-175.8" font-family="Times,serif" font-size="14.00" fill="#000000">AppComponent</text>
</g>
<!-- AppModule -->
<g id="node2" class="node">
<title>AppModule</title>
<polygon fill="#8dd3c7" stroke="#000000" points="456.6571,-266 453.6571,-270 432.6571,-270 429.6571,-266 373.3429,-266 373.3429,-230 456.6571,-230 456.6571,-266"/>
<text text-anchor="middle" x="415" y="-243.8" font-family="Times,serif" font-size="14.00" fill="#000000">AppModule</text>
</g>
<!-- AppComponent&#45;&gt;AppModule -->
<g id="edge1" class="edge">
<title>AppComponent&#45;&gt;AppModule</title>
<path fill="none" stroke="#000000" d="M295,-198.2228C295,-218.3652 295,-248 295,-248 295,-248 363.0298,-248 363.0298,-248"/>
<polygon fill="#000000" stroke="#000000" points="363.0299,-251.5001 373.0298,-248 363.0298,-244.5001 363.0299,-251.5001"/>
</g>
<!-- AppComponent  -->
<g id="node5" class="node">
<title>AppComponent </title>
<polygon fill="#80b1d3" stroke="#000000" points="469.439,-334 360.561,-334 360.561,-298 469.439,-298 469.439,-334"/>
<text text-anchor="middle" x="415" y="-311.8" font-family="Times,serif" font-size="14.00" fill="#000000">AppComponent </text>
</g>
<!-- AppModule&#45;&gt;AppComponent  -->
<g id="edge4" class="edge">
<title>AppModule&#45;&gt;AppComponent </title>
<path fill="none" stroke="#000000" stroke-dasharray="1,5" d="M415,-266.2228C415,-266.2228 415,-287.7269 415,-287.7269"/>
<polygon fill="#000000" stroke="#000000" points="411.5001,-287.7269 415,-297.7269 418.5001,-287.727 411.5001,-287.7269"/>
</g>
<!-- CoreModule -->
<g id="node3" class="node">
<title>CoreModule</title>
<polygon fill="#8dd3c7" stroke="#000000" points="458.2619,-198 455.2619,-202 434.2619,-202 431.2619,-198 371.7381,-198 371.7381,-162 458.2619,-162 458.2619,-198"/>
<text text-anchor="middle" x="415" y="-175.8" font-family="Times,serif" font-size="14.00" fill="#000000">CoreModule</text>
</g>
<!-- CoreModule&#45;&gt;AppModule -->
<g id="edge2" class="edge">
<title>CoreModule&#45;&gt;AppModule</title>
<path fill="none" stroke="#000000" d="M415,-198.2228C415,-198.2228 415,-219.7269 415,-219.7269"/>
<polygon fill="#000000" stroke="#000000" points="411.5001,-219.7269 415,-229.7269 418.5001,-219.727 411.5001,-219.7269"/>
</g>
<!-- SharedModule -->
<g id="node4" class="node">
<title>SharedModule</title>
<polygon fill="#8dd3c7" stroke="#000000" points="575.4231,-198 572.4231,-202 551.4231,-202 548.4231,-198 476.5769,-198 476.5769,-162 575.4231,-162 575.4231,-198"/>
<text text-anchor="middle" x="526" y="-175.8" font-family="Times,serif" font-size="14.00" fill="#000000">SharedModule</text>
</g>
<!-- SharedModule&#45;&gt;AppModule -->
<g id="edge3" class="edge">
<title>SharedModule&#45;&gt;AppModule</title>
<path fill="none" stroke="#000000" d="M542.4037,-198.2228C542.4037,-218.3652 542.4037,-248 542.4037,-248 542.4037,-248 466.7167,-248 466.7167,-248"/>
<polygon fill="#000000" stroke="#000000" points="466.7168,-244.5001 456.7167,-248 466.7167,-251.5001 466.7168,-244.5001"/>
</g>
<!-- LoginModule -->
<g id="node12" class="node">
<title>LoginModule</title>
<polygon fill="#8dd3c7" stroke="#000000" points="2538.493,-266 2535.493,-270 2514.493,-270 2511.493,-266 2445.507,-266 2445.507,-230 2538.493,-230 2538.493,-266"/>
<text text-anchor="middle" x="2492" y="-243.8" font-family="Times,serif" font-size="14.00" fill="#000000">LoginModule</text>
</g>
<!-- SharedModule&#45;&gt;LoginModule -->
<g id="edge11" class="edge">
<title>SharedModule&#45;&gt;LoginModule</title>
<path fill="none" stroke="#000000" d="M575.3909,-165C872.4472,-165 2408.7384,-165 2408.7384,-165 2408.7384,-165 2408.7384,-248 2408.7384,-248 2408.7384,-248 2435.5005,-248 2435.5005,-248"/>
<polygon fill="#000000" stroke="#000000" points="2435.5006,-251.5001 2445.5005,-248 2435.5005,-244.5001 2435.5006,-251.5001"/>
</g>
<!-- ManageAppModule -->
<g id="node17" class="node">
<title>ManageAppModule</title>
<polygon fill="#8dd3c7" stroke="#000000" points="3017.2451,-266 3014.2451,-270 2993.2451,-270 2990.2451,-266 2888.7549,-266 2888.7549,-230 3017.2451,-230 3017.2451,-266"/>
<text text-anchor="middle" x="2953" y="-243.8" font-family="Times,serif" font-size="14.00" fill="#000000">ManageAppModule</text>
</g>
<!-- SharedModule&#45;&gt;ManageAppModule -->
<g id="edge16" class="edge">
<title>SharedModule&#45;&gt;ManageAppModule</title>
<path fill="none" stroke="#000000" d="M509.5963,-198.1944C509.5963,-206.2782 509.5963,-214 509.5963,-214 509.5963,-214 2931.5425,-214 2931.5425,-214 2931.5425,-214 2931.5425,-219.8056 2931.5425,-219.8056"/>
<polygon fill="#000000" stroke="#000000" points="2928.0426,-219.8055 2931.5425,-229.8056 2935.0426,-219.8056 2928.0426,-219.8055"/>
</g>
<!-- CollapseDirective  -->
<g id="node25" class="node">
<title>CollapseDirective </title>
<polygon fill="#fb8072" stroke="#000000" points="1501.0751,-266 1380.9249,-266 1380.9249,-230 1501.0751,-230 1501.0751,-266"/>
<text text-anchor="middle" x="1441" y="-243.8" font-family="Times,serif" font-size="14.00" fill="#000000">CollapseDirective </text>
</g>
<!-- SharedModule&#45;&gt;CollapseDirective  -->
<g id="edge24" class="edge">
<title>SharedModule&#45;&gt;CollapseDirective </title>
<path fill="none" stroke="#000000" stroke-dasharray="5,2" d="M575.5188,-183C766.0169,-183 1441,-183 1441,-183 1441,-183 1441,-219.8939 1441,-219.8939"/>
<polygon fill="#000000" stroke="#000000" points="1437.5001,-219.8938 1441,-229.8939 1444.5001,-219.8939 1437.5001,-219.8938"/>
</g>
<!-- FieldErrorComponent  -->
<g id="node26" class="node">
<title>FieldErrorComponent </title>
<polygon fill="#fb8072" stroke="#000000" points="1362.6453,-266 1219.3547,-266 1219.3547,-230 1362.6453,-230 1362.6453,-266"/>
<text text-anchor="middle" x="1291" y="-243.8" font-family="Times,serif" font-size="14.00" fill="#000000">FieldErrorComponent </text>
</g>
<!-- SharedModule&#45;&gt;FieldErrorComponent  -->
<g id="edge25" class="edge">
<title>SharedModule&#45;&gt;FieldErrorComponent </title>
<path fill="none" stroke="#000000" stroke-dasharray="5,2" d="M575.3108,-186C744.4931,-186 1291,-186 1291,-186 1291,-186 1291,-219.7333 1291,-219.7333"/>
<polygon fill="#000000" stroke="#000000" points="1287.5001,-219.7333 1291,-229.7333 1294.5001,-219.7333 1287.5001,-219.7333"/>
</g>
<!-- MenuBarComponent  -->
<g id="node27" class="node">
<title>MenuBarComponent </title>
<polygon fill="#fb8072" stroke="#000000" points="1201.7037,-266 1064.2963,-266 1064.2963,-230 1201.7037,-230 1201.7037,-266"/>
<text text-anchor="middle" x="1133" y="-243.8" font-family="Times,serif" font-size="14.00" fill="#000000">MenuBarComponent </text>
</g>
<!-- SharedModule&#45;&gt;MenuBarComponent  -->
<g id="edge26" class="edge">
<title>SharedModule&#45;&gt;MenuBarComponent </title>
<path fill="none" stroke="#000000" stroke-dasharray="5,2" d="M575.416,-188C720.154,-188 1133,-188 1133,-188 1133,-188 1133,-219.998 1133,-219.998"/>
<polygon fill="#000000" stroke="#000000" points="1129.5001,-219.998 1133,-229.998 1136.5001,-219.9981 1129.5001,-219.998"/>
</g>
<!-- MessagePipe  -->
<g id="node28" class="node">
<title>MessagePipe </title>
<polygon fill="#fb8072" stroke="#000000" points="1045.8661,-266 952.1339,-266 952.1339,-230 1045.8661,-230 1045.8661,-266"/>
<text text-anchor="middle" x="999" y="-243.8" font-family="Times,serif" font-size="14.00" fill="#000000">MessagePipe </text>
</g>
<!-- SharedModule&#45;&gt;MessagePipe  -->
<g id="edge27" class="edge">
<title>SharedModule&#45;&gt;MessagePipe </title>
<path fill="none" stroke="#000000" stroke-dasharray="5,2" d="M575.2807,-191C696.4278,-191 999,-191 999,-191 999,-191 999,-219.9648 999,-219.9648"/>
<polygon fill="#000000" stroke="#000000" points="995.5001,-219.9648 999,-229.9648 1002.5001,-219.9649 995.5001,-219.9648"/>
</g>
<!-- PageFooterComponent  -->
<g id="node29" class="node">
<title>PageFooterComponent </title>
<polygon fill="#fb8072" stroke="#000000" points="934.0932,-266 785.9068,-266 785.9068,-230 934.0932,-230 934.0932,-266"/>
<text text-anchor="middle" x="860" y="-243.8" font-family="Times,serif" font-size="14.00" fill="#000000">PageFooterComponent </text>
</g>
<!-- SharedModule&#45;&gt;PageFooterComponent  -->
<g id="edge28" class="edge">
<title>SharedModule&#45;&gt;PageFooterComponent </title>
<path fill="none" stroke="#000000" stroke-dasharray="5,2" d="M575.4076,-193C669.0959,-193 863.3001,-193 863.3001,-193 863.3001,-193 863.3001,-219.9909 863.3001,-219.9909"/>
<polygon fill="#000000" stroke="#000000" points="859.8002,-219.9909 863.3001,-229.9909 866.8002,-219.991 859.8002,-219.9909"/>
</g>
<!-- PageHeaderComponent  -->
<g id="node30" class="node">
<title>PageHeaderComponent </title>
<polygon fill="#fb8072" stroke="#000000" points="767.4559,-266 614.5441,-266 614.5441,-230 767.4559,-230 767.4559,-266"/>
<text text-anchor="middle" x="691" y="-243.8" font-family="Times,serif" font-size="14.00" fill="#000000">PageHeaderComponent </text>
</g>
<!-- SharedModule&#45;&gt;PageHeaderComponent  -->
<g id="edge29" class="edge">
<title>SharedModule&#45;&gt;PageHeaderComponent </title>
<path fill="none" stroke="#000000" stroke-dasharray="5,2" d="M575.2927,-196C604.3499,-196 635.474,-196 635.474,-196 635.474,-196 635.474,-219.8129 635.474,-219.8129"/>
<polygon fill="#000000" stroke="#000000" points="631.9741,-219.8129 635.474,-229.8129 638.9741,-219.813 631.9741,-219.8129"/>
</g>
<!-- GuidService -->
<g id="node6" class="node">
<title>GuidService</title>
<ellipse fill="#fdb462" stroke="#000000" cx="733" cy="-104" rx="59.1083" ry="18"/>
<text text-anchor="middle" x="733" y="-99.8" font-family="Times,serif" font-size="14.00" fill="#000000">GuidService</text>
</g>
<!-- GuidService&#45;&gt;CoreModule -->
<g id="edge5" class="edge">
<title>GuidService&#45;&gt;CoreModule</title>
<path fill="none" stroke="#000000" d="M720.4619,-121.7689C720.4619,-136.1404 720.4619,-154 720.4619,-154 720.4619,-154 443.9205,-154 443.9205,-154 443.9205,-154 443.9205,-154.7942 443.9205,-154.7942"/>
<polygon fill="#000000" stroke="#000000" points="440.4207,-151.9421 443.9205,-161.9421 447.4207,-151.9422 440.4207,-151.9421"/>
</g>
<!-- LoadingService -->
<g id="node7" class="node">
<title>LoadingService</title>
<ellipse fill="#fdb462" stroke="#000000" cx="584" cy="-104" rx="72.3516" ry="18"/>
<text text-anchor="middle" x="584" y="-99.8" font-family="Times,serif" font-size="14.00" fill="#000000">LoadingService</text>
</g>
<!-- LoadingService&#45;&gt;CoreModule -->
<g id="edge6" class="edge">
<title>LoadingService&#45;&gt;CoreModule</title>
<path fill="none" stroke="#000000" d="M543.5178,-119.163C543.5178,-131.1934 543.5178,-146 543.5178,-146 543.5178,-146 429.4603,-146 429.4603,-146 429.4603,-146 429.4603,-151.8056 429.4603,-151.8056"/>
<polygon fill="#000000" stroke="#000000" points="425.9604,-151.8055 429.4603,-161.8056 432.9604,-151.8056 425.9604,-151.8055"/>
</g>
<!-- MessageResolver -->
<g id="node8" class="node">
<title>MessageResolver</title>
<ellipse fill="#fdb462" stroke="#000000" cx="415" cy="-104" rx="79.2903" ry="18"/>
<text text-anchor="middle" x="415" y="-99.8" font-family="Times,serif" font-size="14.00" fill="#000000">MessageResolver</text>
</g>
<!-- MessageResolver&#45;&gt;CoreModule -->
<g id="edge7" class="edge">
<title>MessageResolver&#45;&gt;CoreModule</title>
<path fill="none" stroke="#000000" d="M415,-122.0109C415,-122.0109 415,-151.855 415,-151.855"/>
<polygon fill="#000000" stroke="#000000" points="411.5001,-151.8549 415,-161.855 418.5001,-151.855 411.5001,-151.8549"/>
</g>
<!-- ReStorageService -->
<g id="node9" class="node">
<title>ReStorageService</title>
<ellipse fill="#fdb462" stroke="#000000" cx="238" cy="-104" rx="80.4325" ry="18"/>
<text text-anchor="middle" x="238" y="-99.8" font-family="Times,serif" font-size="14.00" fill="#000000">ReStorageService</text>
</g>
<!-- ReStorageService&#45;&gt;CoreModule -->
<g id="edge8" class="edge">
<title>ReStorageService&#45;&gt;CoreModule</title>
<path fill="none" stroke="#000000" d="M280.2482,-119.4248C280.2482,-125.0234 280.2482,-130 280.2482,-130 280.2482,-130 400.5397,-130 400.5397,-130 400.5397,-130 400.5397,-151.9489 400.5397,-151.9489"/>
<polygon fill="#000000" stroke="#000000" points="397.0398,-151.9488 400.5397,-161.9489 404.0398,-151.9489 397.0398,-151.9488"/>
</g>
<!-- TitleService -->
<g id="node10" class="node">
<title>TitleService</title>
<ellipse fill="#fdb462" stroke="#000000" cx="82" cy="-104" rx="58.459" ry="18"/>
<text text-anchor="middle" x="82" y="-99.8" font-family="Times,serif" font-size="14.00" fill="#000000">TitleService</text>
</g>
<!-- TitleService&#45;&gt;CoreModule -->
<g id="edge9" class="edge">
<title>TitleService&#45;&gt;CoreModule</title>
<path fill="none" stroke="#000000" d="M82,-122.1944C82,-130.2782 82,-138 82,-138 82,-138 386.0795,-138 386.0795,-138 386.0795,-138 386.0795,-151.9445 386.0795,-151.9445"/>
<polygon fill="#000000" stroke="#000000" points="382.5796,-151.9444 386.0795,-161.9445 389.5796,-151.9445 382.5796,-151.9444"/>
</g>
<!-- LoginComponent -->
<g id="node11" class="node">
<title>LoginComponent</title>
<polygon fill="#ffffb3" stroke="#000000" points="2693.2758,-198 2578.7242,-198 2578.7242,-162 2693.2758,-162 2693.2758,-198"/>
<text text-anchor="middle" x="2636" y="-175.8" font-family="Times,serif" font-size="14.00" fill="#000000">LoginComponent</text>
</g>
<!-- LoginComponent&#45;&gt;LoginModule -->
<g id="edge10" class="edge">
<title>LoginComponent&#45;&gt;LoginModule</title>
<path fill="none" stroke="#000000" d="M2636,-198.2921C2636,-220.2057 2636,-254 2636,-254 2636,-254 2548.7527,-254 2548.7527,-254"/>
<polygon fill="#000000" stroke="#000000" points="2548.7527,-250.5001 2538.7527,-254 2548.7526,-257.5001 2548.7527,-250.5001"/>
</g>
<!-- LoginService -->
<g id="node13" class="node">
<title>LoginService</title>
<ellipse fill="#fdb462" stroke="#000000" cx="2492" cy="-180" rx="63.1209" ry="18"/>
<text text-anchor="middle" x="2492" y="-175.8" font-family="Times,serif" font-size="14.00" fill="#000000">LoginService</text>
</g>
<!-- LoginService&#45;&gt;LoginModule -->
<g id="edge12" class="edge">
<title>LoginService&#45;&gt;LoginModule</title>
<path fill="none" stroke="#000000" d="M2492,-198.2228C2492,-198.2228 2492,-219.7269 2492,-219.7269"/>
<polygon fill="#000000" stroke="#000000" points="2488.5001,-219.7269 2492,-229.7269 2495.5001,-219.727 2488.5001,-219.7269"/>
</g>
<!-- ManageAppComponent -->
<g id="node14" class="node">
<title>ManageAppComponent</title>
<polygon fill="#ffffb3" stroke="#000000" points="3357.0281,-198 3206.9719,-198 3206.9719,-162 3357.0281,-162 3357.0281,-198"/>
<text text-anchor="middle" x="3282" y="-175.8" font-family="Times,serif" font-size="14.00" fill="#000000">ManageAppComponent</text>
</g>
<!-- ManageAppComponent&#45;&gt;ManageAppModule -->
<g id="edge13" class="edge">
<title>ManageAppComponent&#45;&gt;ManageAppModule</title>
<path fill="none" stroke="#000000" d="M3282,-198.2921C3282,-220.2057 3282,-254 3282,-254 3282,-254 3027.6073,-254 3027.6073,-254"/>
<polygon fill="#000000" stroke="#000000" points="3027.6073,-250.5001 3017.6073,-254 3027.6072,-257.5001 3027.6073,-250.5001"/>
</g>
<!-- OrderMockComponent -->
<g id="node15" class="node">
<title>OrderMockComponent</title>
<polygon fill="#ffffb3" stroke="#000000" points="3188.1345,-198 3041.8655,-198 3041.8655,-162 3188.1345,-162 3188.1345,-198"/>
<text text-anchor="middle" x="3115" y="-175.8" font-family="Times,serif" font-size="14.00" fill="#000000">OrderMockComponent</text>
</g>
<!-- OrderMockComponent&#45;&gt;ManageAppModule -->
<g id="edge14" class="edge">
<title>OrderMockComponent&#45;&gt;ManageAppModule</title>
<path fill="none" stroke="#000000" d="M3115,-198.2667C3115,-216.5552 3115,-242 3115,-242 3115,-242 3027.4922,-242 3027.4922,-242"/>
<polygon fill="#000000" stroke="#000000" points="3027.4922,-238.5001 3017.4922,-242 3027.4921,-245.5001 3027.4922,-238.5001"/>
</g>
<!-- UserMockComponent -->
<g id="node16" class="node">
<title>UserMockComponent</title>
<polygon fill="#ffffb3" stroke="#000000" points="3023.4186,-198 2882.5814,-198 2882.5814,-162 3023.4186,-162 3023.4186,-198"/>
<text text-anchor="middle" x="2953" y="-175.8" font-family="Times,serif" font-size="14.00" fill="#000000">UserMockComponent</text>
</g>
<!-- UserMockComponent&#45;&gt;ManageAppModule -->
<g id="edge15" class="edge">
<title>UserMockComponent&#45;&gt;ManageAppModule</title>
<path fill="none" stroke="#000000" d="M2974.4575,-198.2228C2974.4575,-198.2228 2974.4575,-219.7269 2974.4575,-219.7269"/>
<polygon fill="#000000" stroke="#000000" points="2970.9576,-219.7269 2974.4575,-229.7269 2977.9576,-219.727 2970.9576,-219.7269"/>
</g>
<!-- MenuService -->
<g id="node18" class="node">
<title>MenuService</title>
<ellipse fill="#fdb462" stroke="#000000" cx="2796" cy="-180" rx="62.5392" ry="18"/>
<text text-anchor="middle" x="2796" y="-175.8" font-family="Times,serif" font-size="14.00" fill="#000000">MenuService</text>
</g>
<!-- MenuService&#45;&gt;ManageAppModule -->
<g id="edge17" class="edge">
<title>MenuService&#45;&gt;ManageAppModule</title>
<path fill="none" stroke="#000000" d="M2796,-198.2667C2796,-216.5552 2796,-242 2796,-242 2796,-242 2878.6891,-242 2878.6891,-242"/>
<polygon fill="#000000" stroke="#000000" points="2878.6891,-245.5001 2888.6891,-242 2878.6891,-238.5001 2878.6891,-245.5001"/>
</g>
<!-- CollapseDirective -->
<g id="node19" class="node">
<title>CollapseDirective</title>
<polygon fill="#ffffb3" stroke="#000000" points="2388.5744,-266 2271.4256,-266 2271.4256,-230 2388.5744,-230 2388.5744,-266"/>
<text text-anchor="middle" x="2330" y="-243.8" font-family="Times,serif" font-size="14.00" fill="#000000">CollapseDirective</text>
</g>
<!-- CollapseDirective&#45;&gt;SharedModule -->
<g id="edge18" class="edge">
<title>CollapseDirective&#45;&gt;SharedModule</title>
<path fill="none" stroke="#000000" d="M2330,-229.8468C2330,-206.2434 2330,-168 2330,-168 2330,-168 585.6592,-168 585.6592,-168"/>
<polygon fill="#000000" stroke="#000000" points="585.6592,-164.5001 575.6592,-168 585.6591,-171.5001 585.6592,-164.5001"/>
</g>
<!-- FieldErrorComponent -->
<g id="node20" class="node">
<title>FieldErrorComponent</title>
<polygon fill="#ffffb3" stroke="#000000" points="2253.6456,-266 2114.3544,-266 2114.3544,-230 2253.6456,-230 2253.6456,-266"/>
<text text-anchor="middle" x="2184" y="-243.8" font-family="Times,serif" font-size="14.00" fill="#000000">FieldErrorComponent</text>
</g>
<!-- FieldErrorComponent&#45;&gt;SharedModule -->
<g id="edge19" class="edge">
<title>FieldErrorComponent&#45;&gt;SharedModule</title>
<path fill="none" stroke="#000000" d="M2184,-229.9092C2184,-206.8672 2184,-170 2184,-170 2184,-170 585.6206,-170 585.6206,-170"/>
<polygon fill="#000000" stroke="#000000" points="585.6207,-166.5001 575.6206,-170 585.6206,-173.5001 585.6207,-166.5001"/>
</g>
<!-- MenuBarComponent -->
<g id="node21" class="node">
<title>MenuBarComponent</title>
<polygon fill="#ffffb3" stroke="#000000" points="2096.2036,-266 1961.7964,-266 1961.7964,-230 2096.2036,-230 2096.2036,-266"/>
<text text-anchor="middle" x="2029" y="-243.8" font-family="Times,serif" font-size="14.00" fill="#000000">MenuBarComponent</text>
</g>
<!-- MenuBarComponent&#45;&gt;SharedModule -->
<g id="edge20" class="edge">
<title>MenuBarComponent&#45;&gt;SharedModule</title>
<path fill="none" stroke="#000000" d="M2029,-229.8446C2029,-207.6481 2029,-173 2029,-173 2029,-173 585.5794,-173 585.5794,-173"/>
<polygon fill="#000000" stroke="#000000" points="585.5794,-169.5001 575.5794,-173 585.5794,-176.5001 585.5794,-169.5001"/>
</g>
<!-- MessagePipe -->
<g id="node22" class="node">
<title>MessagePipe</title>
<polygon fill="#ffffb3" stroke="#000000" points="1943.8655,-266 1854.1345,-266 1854.1345,-230 1943.8655,-230 1943.8655,-266"/>
<text text-anchor="middle" x="1899" y="-243.8" font-family="Times,serif" font-size="14.00" fill="#000000">MessagePipe</text>
</g>
<!-- MessagePipe&#45;&gt;SharedModule -->
<g id="edge21" class="edge">
<title>MessagePipe&#45;&gt;SharedModule</title>
<path fill="none" stroke="#000000" d="M1899,-229.9551C1899,-208.3377 1899,-175 1899,-175 1899,-175 585.2706,-175 585.2706,-175"/>
<polygon fill="#000000" stroke="#000000" points="585.2706,-171.5001 575.2706,-175 585.2706,-178.5001 585.2706,-171.5001"/>
</g>
<!-- PageFooterComponent -->
<g id="node23" class="node">
<title>PageFooterComponent</title>
<polygon fill="#ffffb3" stroke="#000000" points="1836.5926,-266 1691.4074,-266 1691.4074,-230 1836.5926,-230 1836.5926,-266"/>
<text text-anchor="middle" x="1764" y="-243.8" font-family="Times,serif" font-size="14.00" fill="#000000">PageFooterComponent</text>
</g>
<!-- PageFooterComponent&#45;&gt;SharedModule -->
<g id="edge22" class="edge">
<title>PageFooterComponent&#45;&gt;SharedModule</title>
<path fill="none" stroke="#000000" d="M1764,-229.9733C1764,-209.2328 1764,-178 1764,-178 1764,-178 585.295,-178 585.295,-178"/>
<polygon fill="#000000" stroke="#000000" points="585.2951,-174.5001 575.295,-178 585.295,-181.5001 585.2951,-174.5001"/>
</g>
<!-- PageHeaderComponent -->
<g id="node24" class="node">
<title>PageHeaderComponent</title>
<polygon fill="#ffffb3" stroke="#000000" points="1673.4552,-266 1524.5448,-266 1524.5448,-230 1673.4552,-230 1673.4552,-266"/>
<text text-anchor="middle" x="1599" y="-243.8" font-family="Times,serif" font-size="14.00" fill="#000000">PageHeaderComponent</text>
</g>
<!-- PageHeaderComponent&#45;&gt;SharedModule -->
<g id="edge23" class="edge">
<title>PageHeaderComponent&#45;&gt;SharedModule</title>
<path fill="none" stroke="#000000" d="M1599,-229.7772C1599,-209.6348 1599,-180 1599,-180 1599,-180 585.2463,-180 585.2463,-180"/>
<polygon fill="#000000" stroke="#000000" points="585.2464,-176.5001 575.2463,-180 585.2463,-183.5001 585.2464,-176.5001"/>
</g>
</g>
</svg>
