<?xml version="1.0" encoding="UTF-8" standalone="no"?>
<svg width="17px" height="21px" viewBox="0 0 17 21" version="1.1" xmlns="http://www.w3.org/2000/svg" xmlns:xlink="http://www.w3.org/1999/xlink">
    <!-- Generator: sketchtool 40.3 (33839) - http://www.bohemiancoding.com/sketch -->
    <title>C33212F3-BA57-4959-9A6F-181021B7507A</title>
    <desc>Created with sketchtool.</desc>
    <defs></defs>
    <g id="Symbols" stroke="none" stroke-width="1" fill="none" fill-rule="evenodd">
        <g id="Nav.1-1" transform="translate(-25.000000, -221.000000)" fill="#B1CCE7">
            <g id="Nav.-1-1">
                <path d="M26.9084844,240.07143 L26.9084844,234.714281 L25.122768,234.714281 L25.122768,241.857146 L41.1718943,241.857146 L41.1718943,234.714281 L39.3861779,234.714281 L39.3861779,240.07143 L26.9084844,240.07143 Z M28.8727725,234.223209 L37.6116222,236.053568 L37.9799262,234.312494 L29.2410765,232.470974 L28.8727725,234.223209 Z M30.0223274,230.049096 L38.1138549,233.821422 L38.8616237,232.203117 L30.7700962,228.41963 L30.0223274,230.049096 Z M32.2656337,226.075877 L39.1183204,231.801331 L40.2567146,230.428561 L33.4040279,224.703108 L32.2656337,226.075877 Z M36.6964425,221.857122 L35.2678694,222.928552 L40.5915364,230.082579 L42.0201096,229.011149 L36.6964425,221.857122 Z M28.6830401,238.274553 L37.6116222,238.274553 L37.6116222,236.499997 L28.6830401,236.499997 L28.6830401,238.274553 Z" id="Stack-Overflow---FontAwesome"></path>
            </g>
        </g>
    </g>
</svg>