<?xml version="1.0" encoding="UTF-8" standalone="no"?>
<svg width="18px" height="21px" viewBox="0 0 18 21" version="1.1" xmlns="http://www.w3.org/2000/svg" xmlns:xlink="http://www.w3.org/1999/xlink">
    <!-- Generator: sketchtool 40.3 (33839) - http://www.bohemiancoding.com/sketch -->
    <title>C7381FAB-9B30-4CAC-8753-75E4F1B5E827</title>
    <desc>Created with sketchtool.</desc>
    <defs></defs>
    <g id="Symbols" stroke="none" stroke-width="1" fill="none" fill-rule="evenodd">
        <g id="Nav.1-1" transform="translate(-26.000000, -271.000000)" fill="#B1CCE7">
            <g id="Nav.-1-1">
                <path d="M42.3839481,276.098199 L38.9018011,272.616052 C38.4888542,272.203105 37.6629603,271.857122 37.0714418,271.857122 L27.0714298,271.857122 C26.4799113,271.857122 26,272.337034 26,272.928552 L26,290.785716 C26,291.377235 26.4799113,291.857146 27.0714298,291.857146 L42.0714477,291.857146 C42.6629663,291.857146 43.1428776,291.377235 43.1428776,290.785716 L43.1428776,277.928558 C43.1428776,277.33704 42.796895,276.511146 42.3839481,276.098199 L42.3839481,276.098199 Z M37.4285851,273.374981 C37.6183174,273.441946 37.8080498,273.542392 37.8861749,273.620517 L41.3794826,277.113825 C41.4576077,277.19195 41.5580543,277.381683 41.6250186,277.571415 L37.4285851,277.571415 L37.4285851,273.374981 Z M41.7143044,290.428573 L27.4285731,290.428573 L27.4285731,273.285696 L36.0000119,273.285696 L36.0000119,277.928558 C36.0000119,278.520077 36.4799232,278.999988 37.0714418,278.999988 L41.7143044,278.999988 L41.7143044,290.428573 Z M30.2857194,280.785704 L30.2857194,281.499991 C30.2857194,281.700884 30.4419696,281.857134 30.6428627,281.857134 L38.5000149,281.857134 C38.700908,281.857134 38.8571582,281.700884 38.8571582,281.499991 L38.8571582,280.785704 C38.8571582,280.584811 38.700908,280.428561 38.5000149,280.428561 L30.6428627,280.428561 C30.4419696,280.428561 30.2857194,280.584811 30.2857194,280.785704 L30.2857194,280.785704 Z M38.5000149,283.285707 L30.6428627,283.285707 C30.4419696,283.285707 30.2857194,283.441958 30.2857194,283.642851 L30.2857194,284.357137 C30.2857194,284.55803 30.4419696,284.714281 30.6428627,284.714281 L38.5000149,284.714281 C38.700908,284.714281 38.8571582,284.55803 38.8571582,284.357137 L38.8571582,283.642851 C38.8571582,283.441958 38.700908,283.285707 38.5000149,283.285707 L38.5000149,283.285707 Z M38.5000149,286.142854 L30.6428627,286.142854 C30.4419696,286.142854 30.2857194,286.299104 30.2857194,286.499997 L30.2857194,287.214284 C30.2857194,287.415177 30.4419696,287.571427 30.6428627,287.571427 L38.5000149,287.571427 C38.700908,287.571427 38.8571582,287.415177 38.8571582,287.214284 L38.8571582,286.499997 C38.8571582,286.299104 38.700908,286.142854 38.5000149,286.142854 L38.5000149,286.142854 Z" id=""></path>
            </g>
        </g>
    </g>
</svg>