<?xml version="1.0" encoding="UTF-8" standalone="no"?>
<!DOCTYPE svg PUBLIC "-//W3C//DTD SVG 1.1//EN"
 "http://www.w3.org/Graphics/SVG/1.1/DTD/svg11.dtd">
<!-- Generated by graphviz version 2.40.1 (20161225.0304)
 -->
<!-- Title: dependencies Pages: 1 -->
<svg width="824pt" height="211pt"
 viewBox="0.00 0.00 824.00 211.00" xmlns="http://www.w3.org/2000/svg" xmlns:xlink="http://www.w3.org/1999/xlink">
<g id="graph0" class="graph" transform="scale(1 1) rotate(0) translate(4 207)">
<title>dependencies</title>
<polygon fill="#ffffff" stroke="transparent" points="-4,4 -4,-207 820,-207 820,4 -4,4"/>
<text text-anchor="start" x="387.0091" y="-42.4" font-family="sans-serif" font-weight="bold" font-size="14.00" fill="#000000">Legend</text>
<polygon fill="#ffffb3" stroke="transparent" points="174,-10 174,-30 194,-30 194,-10 174,-10"/>
<text text-anchor="start" x="197.629" y="-15.4" font-family="sans-serif" font-size="14.00" fill="#000000"> &#160;Declarations</text>
<polygon fill="#8dd3c7" stroke="transparent" points="287,-10 287,-30 307,-30 307,-10 287,-10"/>
<text text-anchor="start" x="310.7251" y="-15.4" font-family="sans-serif" font-size="14.00" fill="#000000"> &#160;Module</text>
<polygon fill="#80b1d3" stroke="transparent" points="373,-10 373,-30 393,-30 393,-10 373,-10"/>
<text text-anchor="start" x="396.7812" y="-15.4" font-family="sans-serif" font-size="14.00" fill="#000000"> &#160;Bootstrap</text>
<polygon fill="#fdb462" stroke="transparent" points="470,-10 470,-30 490,-30 490,-10 470,-10"/>
<text text-anchor="start" x="493.6732" y="-15.4" font-family="sans-serif" font-size="14.00" fill="#000000"> &#160;Providers</text>
<polygon fill="#fb8072" stroke="transparent" points="566,-10 566,-30 586,-30 586,-10 566,-10"/>
<text text-anchor="start" x="589.7258" y="-15.4" font-family="sans-serif" font-size="14.00" fill="#000000"> &#160;Exports</text>
<g id="clust1" class="cluster">
<title>cluster_CoreModule</title>
<polygon fill="none" stroke="#000000" stroke-dasharray="1,5" points="8,-70 8,-195 808,-195 808,-70 8,-70"/>
</g>
<g id="clust6" class="cluster">
<title>cluster_CoreModule_providers</title>
<polygon fill="none" stroke="#000000" points="16,-78 16,-130 800,-130 800,-78 16,-78"/>
</g>
<!-- GuidService -->
<g id="node1" class="node">
<title>GuidService</title>
<ellipse fill="#fdb462" stroke="#000000" cx="733" cy="-104" rx="59.1083" ry="18"/>
<text text-anchor="middle" x="733" y="-99.8" font-family="Times,serif" font-size="14.00" fill="#000000">GuidService</text>
</g>
<!-- CoreModule -->
<g id="node6" class="node">
<title>CoreModule</title>
<polygon fill="#8dd3c7" stroke="#000000" points="458.2619,-187 455.2619,-191 434.2619,-191 431.2619,-187 371.7381,-187 371.7381,-151 458.2619,-151 458.2619,-187"/>
<text text-anchor="middle" x="415" y="-164.8" font-family="Times,serif" font-size="14.00" fill="#000000">CoreModule</text>
</g>
<!-- GuidService&#45;&gt;CoreModule -->
<g id="edge1" class="edge">
<title>GuidService&#45;&gt;CoreModule</title>
<path fill="none" stroke="#000000" d="M733,-122.2843C733,-143.3211 733,-175 733,-175 733,-175 468.5498,-175 468.5498,-175"/>
<polygon fill="#000000" stroke="#000000" points="468.5498,-171.5001 458.5498,-175 468.5497,-178.5001 468.5498,-171.5001"/>
</g>
<!-- LoadingService -->
<g id="node2" class="node">
<title>LoadingService</title>
<ellipse fill="#fdb462" stroke="#000000" cx="584" cy="-104" rx="72.3516" ry="18"/>
<text text-anchor="middle" x="584" y="-99.8" font-family="Times,serif" font-size="14.00" fill="#000000">LoadingService</text>
</g>
<!-- LoadingService&#45;&gt;CoreModule -->
<g id="edge2" class="edge">
<title>LoadingService&#45;&gt;CoreModule</title>
<path fill="none" stroke="#000000" d="M584,-122.0225C584,-139.3734 584,-163 584,-163 584,-163 468.5217,-163 468.5217,-163"/>
<polygon fill="#000000" stroke="#000000" points="468.5217,-159.5001 458.5217,-163 468.5217,-166.5001 468.5217,-159.5001"/>
</g>
<!-- MessageResolver -->
<g id="node3" class="node">
<title>MessageResolver</title>
<ellipse fill="#fdb462" stroke="#000000" cx="415" cy="-104" rx="79.2903" ry="18"/>
<text text-anchor="middle" x="415" y="-99.8" font-family="Times,serif" font-size="14.00" fill="#000000">MessageResolver</text>
</g>
<!-- MessageResolver&#45;&gt;CoreModule -->
<g id="edge3" class="edge">
<title>MessageResolver&#45;&gt;CoreModule</title>
<path fill="none" stroke="#000000" d="M415,-122.1061C415,-122.1061 415,-140.991 415,-140.991"/>
<polygon fill="#000000" stroke="#000000" points="411.5001,-140.9909 415,-150.991 418.5001,-140.991 411.5001,-140.9909"/>
</g>
<!-- ReStorageService -->
<g id="node4" class="node">
<title>ReStorageService</title>
<ellipse fill="#fdb462" stroke="#000000" cx="238" cy="-104" rx="80.4325" ry="18"/>
<text text-anchor="middle" x="238" y="-99.8" font-family="Times,serif" font-size="14.00" fill="#000000">ReStorageService</text>
</g>
<!-- ReStorageService&#45;&gt;CoreModule -->
<g id="edge4" class="edge">
<title>ReStorageService&#45;&gt;CoreModule</title>
<path fill="none" stroke="#000000" d="M238,-122.0225C238,-139.3734 238,-163 238,-163 238,-163 361.7009,-163 361.7009,-163"/>
<polygon fill="#000000" stroke="#000000" points="361.701,-166.5001 371.7009,-163 361.7009,-159.5001 361.701,-166.5001"/>
</g>
<!-- TitleService -->
<g id="node5" class="node">
<title>TitleService</title>
<ellipse fill="#fdb462" stroke="#000000" cx="82" cy="-104" rx="58.459" ry="18"/>
<text text-anchor="middle" x="82" y="-99.8" font-family="Times,serif" font-size="14.00" fill="#000000">TitleService</text>
</g>
<!-- TitleService&#45;&gt;CoreModule -->
<g id="edge5" class="edge">
<title>TitleService&#45;&gt;CoreModule</title>
<path fill="none" stroke="#000000" d="M82,-122.2843C82,-143.3211 82,-175 82,-175 82,-175 361.4661,-175 361.4661,-175"/>
<polygon fill="#000000" stroke="#000000" points="361.4661,-178.5001 371.4661,-175 361.466,-171.5001 361.4661,-178.5001"/>
</g>
</g>
</svg>
