<?xml version="1.0" encoding="UTF-8" standalone="no"?>
<!DOCTYPE svg PUBLIC "-//W3C//DTD SVG 1.1//EN"
 "http://www.w3.org/Graphics/SVG/1.1/DTD/svg11.dtd">
<!-- Generated by graphviz version 2.40.1 (20161225.0304)
 -->
<!-- Title: dependencies Pages: 1 -->
<svg width="825pt" height="211pt"
 viewBox="0.00 0.00 825.00 211.00" xmlns="http://www.w3.org/2000/svg" xmlns:xlink="http://www.w3.org/1999/xlink">
<g id="graph0" class="graph" transform="scale(1 1) rotate(0) translate(4 207)">
<title>dependencies</title>
<polygon fill="#ffffff" stroke="transparent" points="-4,4 -4,-207 821,-207 821,4 -4,4"/>
<text text-anchor="start" x="387.5091" y="-42.4" font-family="sans-serif" font-weight="bold" font-size="14.00" fill="#000000">Legend</text>
<polygon fill="#ffffb3" stroke="transparent" points="174.5,-10 174.5,-30 194.5,-30 194.5,-10 174.5,-10"/>
<text text-anchor="start" x="198.129" y="-15.4" font-family="sans-serif" font-size="14.00" fill="#000000"> &#160;Declarations</text>
<polygon fill="#8dd3c7" stroke="transparent" points="287.5,-10 287.5,-30 307.5,-30 307.5,-10 287.5,-10"/>
<text text-anchor="start" x="311.2251" y="-15.4" font-family="sans-serif" font-size="14.00" fill="#000000"> &#160;Module</text>
<polygon fill="#80b1d3" stroke="transparent" points="373.5,-10 373.5,-30 393.5,-30 393.5,-10 373.5,-10"/>
<text text-anchor="start" x="397.2812" y="-15.4" font-family="sans-serif" font-size="14.00" fill="#000000"> &#160;Bootstrap</text>
<polygon fill="#fdb462" stroke="transparent" points="470.5,-10 470.5,-30 490.5,-30 490.5,-10 470.5,-10"/>
<text text-anchor="start" x="494.1732" y="-15.4" font-family="sans-serif" font-size="14.00" fill="#000000"> &#160;Providers</text>
<polygon fill="#fb8072" stroke="transparent" points="566.5,-10 566.5,-30 586.5,-30 586.5,-10 566.5,-10"/>
<text text-anchor="start" x="590.2258" y="-15.4" font-family="sans-serif" font-size="14.00" fill="#000000"> &#160;Exports</text>
<g id="clust1" class="cluster">
<title>cluster_CoreModule</title>
<polygon fill="none" stroke="#000000" stroke-dasharray="1,5" points="8,-70 8,-195 809,-195 809,-70 8,-70"/>
</g>
<g id="clust6" class="cluster">
<title>cluster_CoreModule_providers</title>
<polygon fill="none" stroke="#000000" points="16,-78 16,-130 801,-130 801,-78 16,-78"/>
</g>
<!-- LoadingService -->
<g id="node1" class="node">
<title>LoadingService</title>
<ellipse fill="#fdb462" stroke="#000000" cx="721" cy="-104" rx="72.3516" ry="18"/>
<text text-anchor="middle" x="721" y="-99.8" font-family="Times,serif" font-size="14.00" fill="#000000">LoadingService</text>
</g>
<!-- CoreModule -->
<g id="node6" class="node">
<title>CoreModule</title>
<polygon fill="#8dd3c7" stroke="#000000" points="457.2619,-187 454.2619,-191 433.2619,-191 430.2619,-187 370.7381,-187 370.7381,-151 457.2619,-151 457.2619,-187"/>
<text text-anchor="middle" x="414" y="-164.8" font-family="Times,serif" font-size="14.00" fill="#000000">CoreModule</text>
</g>
<!-- LoadingService&#45;&gt;CoreModule -->
<g id="edge1" class="edge">
<title>LoadingService&#45;&gt;CoreModule</title>
<path fill="none" stroke="#000000" d="M721,-122.2843C721,-143.3211 721,-175 721,-175 721,-175 467.3345,-175 467.3345,-175"/>
<polygon fill="#000000" stroke="#000000" points="467.3345,-171.5001 457.3345,-175 467.3344,-178.5001 467.3345,-171.5001"/>
</g>
<!-- GuidService -->
<g id="node2" class="node">
<title>GuidService</title>
<ellipse fill="#fdb462" stroke="#000000" cx="572" cy="-104" rx="59.1083" ry="18"/>
<text text-anchor="middle" x="572" y="-99.8" font-family="Times,serif" font-size="14.00" fill="#000000">GuidService</text>
</g>
<!-- GuidService&#45;&gt;CoreModule -->
<g id="edge2" class="edge">
<title>GuidService&#45;&gt;CoreModule</title>
<path fill="none" stroke="#000000" d="M572,-122.0225C572,-139.3734 572,-163 572,-163 572,-163 467.5924,-163 467.5924,-163"/>
<polygon fill="#000000" stroke="#000000" points="467.5925,-159.5001 457.5924,-163 467.5924,-166.5001 467.5925,-159.5001"/>
</g>
<!-- ReStorageService -->
<g id="node3" class="node">
<title>ReStorageService</title>
<ellipse fill="#fdb462" stroke="#000000" cx="414" cy="-104" rx="80.4325" ry="18"/>
<text text-anchor="middle" x="414" y="-99.8" font-family="Times,serif" font-size="14.00" fill="#000000">ReStorageService</text>
</g>
<!-- ReStorageService&#45;&gt;CoreModule -->
<g id="edge3" class="edge">
<title>ReStorageService&#45;&gt;CoreModule</title>
<path fill="none" stroke="#000000" d="M414,-122.1061C414,-122.1061 414,-140.991 414,-140.991"/>
<polygon fill="#000000" stroke="#000000" points="410.5001,-140.9909 414,-150.991 417.5001,-140.991 410.5001,-140.9909"/>
</g>
<!-- MessageResolver -->
<g id="node4" class="node">
<title>MessageResolver</title>
<ellipse fill="#fdb462" stroke="#000000" cx="237" cy="-104" rx="79.2903" ry="18"/>
<text text-anchor="middle" x="237" y="-99.8" font-family="Times,serif" font-size="14.00" fill="#000000">MessageResolver</text>
</g>
<!-- MessageResolver&#45;&gt;CoreModule -->
<g id="edge4" class="edge">
<title>MessageResolver&#45;&gt;CoreModule</title>
<path fill="none" stroke="#000000" d="M237,-122.0225C237,-139.3734 237,-163 237,-163 237,-163 360.7009,-163 360.7009,-163"/>
<polygon fill="#000000" stroke="#000000" points="360.701,-166.5001 370.7009,-163 360.7009,-159.5001 360.701,-166.5001"/>
</g>
<!-- TitleService -->
<g id="node5" class="node">
<title>TitleService</title>
<ellipse fill="#fdb462" stroke="#000000" cx="82" cy="-104" rx="58.459" ry="18"/>
<text text-anchor="middle" x="82" y="-99.8" font-family="Times,serif" font-size="14.00" fill="#000000">TitleService</text>
</g>
<!-- TitleService&#45;&gt;CoreModule -->
<g id="edge5" class="edge">
<title>TitleService&#45;&gt;CoreModule</title>
<path fill="none" stroke="#000000" d="M82,-122.2843C82,-143.3211 82,-175 82,-175 82,-175 360.5968,-175 360.5968,-175"/>
<polygon fill="#000000" stroke="#000000" points="360.5968,-178.5001 370.5968,-175 360.5968,-171.5001 360.5968,-178.5001"/>
</g>
</g>
</svg>
