<?xml version="1.0" encoding="UTF-8" standalone="no"?>
<svg width="21px" height="17px" viewBox="0 0 21 17" version="1.1" xmlns="http://www.w3.org/2000/svg" xmlns:xlink="http://www.w3.org/1999/xlink">
    <!-- Generator: sketchtool 40.3 (33839) - http://www.bohemiancoding.com/sketch -->
    <title>09EBA937-C972-4389-93FE-69A191C345EF</title>
    <desc>Created with sketchtool.</desc>
    <defs></defs>
    <g id="Symbols" stroke="none" stroke-width="1" fill="none" fill-rule="evenodd">
        <g id="Nav.1-1" transform="translate(-24.000000, -172.000000)" fill="#B1CCE7">
            <g id="Nav.-1-1">
                <path d="M28.8214343,182.499995 C28.8214343,183.383924 28.0982192,184.107139 27.2142895,184.107139 C26.3303599,184.107139 25.6071448,183.383924 25.6071448,182.499995 C25.6071448,181.616065 26.3303599,180.89285 27.2142895,180.89285 C28.0982192,180.89285 28.8214343,181.616065 28.8214343,182.499995 L28.8214343,182.499995 Z M29.1830419,179.285705 L30.0770162,175.699763 C30.1071501,175.589272 30.3080432,175.428558 30.4285791,175.428558 L38.142874,175.428558 C38.2634099,175.428558 38.464303,175.589272 38.4944369,175.699763 L39.3884112,179.285705 L29.1830419,179.285705 Z M42.9643083,182.499995 C42.9643083,183.383924 42.2410932,184.107139 41.3571635,184.107139 C40.4732339,184.107139 39.7500188,183.383924 39.7500188,182.499995 C39.7500188,181.616065 40.4732339,180.89285 41.3571635,180.89285 C42.2410932,180.89285 42.9643083,181.616065 42.9643083,182.499995 L42.9643083,182.499995 Z M44.5714531,181.535708 C44.5714531,180.290171 43.5669876,179.285705 42.3214504,179.285705 L42.0402001,179.285705 L40.9855113,175.076995 C40.674127,173.811368 39.4486791,172.857126 38.142874,172.857126 L30.4285791,172.857126 C29.122774,172.857126 27.8973261,173.811368 27.5859418,175.076995 L26.531253,179.285705 L26.2500027,179.285705 C25.0044655,179.285705 24,180.290171 24,181.535708 L24,185.392855 C24,185.573659 24.1406252,185.714284 24.321429,185.714284 L25.2857158,185.714284 L25.2857158,187 C25.2857158,188.064733 26.1495561,188.928574 27.2142895,188.928574 C28.279023,188.928574 29.1428633,188.064733 29.1428633,187 L29.1428633,185.714284 L39.4285898,185.714284 L39.4285898,187 C39.4285898,188.064733 40.2924301,188.928574 41.3571635,188.928574 C42.421897,188.928574 43.2857373,188.064733 43.2857373,187 L43.2857373,185.714284 L44.2500241,185.714284 C44.4308279,185.714284 44.5714531,185.573659 44.5714531,185.392855 L44.5714531,181.535708 Z" id=""></path>
            </g>
        </g>
    </g>
</svg>