<?xml version="1.0" encoding="UTF-8" standalone="no"?>
<!DOCTYPE svg PUBLIC "-//W3C//DTD SVG 1.1//EN"
 "http://www.w3.org/Graphics/SVG/1.1/DTD/svg11.dtd">
<!-- Generated by graphviz version 2.40.1 (20161225.0304)
 -->
<!-- Title: dependencies Pages: 1 -->
<svg width="802pt" height="211pt"
 viewBox="0.00 0.00 802.00 211.00" xmlns="http://www.w3.org/2000/svg" xmlns:xlink="http://www.w3.org/1999/xlink">
<g id="graph0" class="graph" transform="scale(1 1) rotate(0) translate(4 207)">
<title>dependencies</title>
<polygon fill="#ffffff" stroke="transparent" points="-4,4 -4,-207 798,-207 798,4 -4,4"/>
<text text-anchor="start" x="376.0091" y="-42.4" font-family="sans-serif" font-weight="bold" font-size="14.00" fill="#000000">Legend</text>
<polygon fill="#ffffb3" stroke="transparent" points="163,-10 163,-30 183,-30 183,-10 163,-10"/>
<text text-anchor="start" x="186.629" y="-15.4" font-family="sans-serif" font-size="14.00" fill="#000000"> &#160;Declarations</text>
<polygon fill="#8dd3c7" stroke="transparent" points="276,-10 276,-30 296,-30 296,-10 276,-10"/>
<text text-anchor="start" x="299.7251" y="-15.4" font-family="sans-serif" font-size="14.00" fill="#000000"> &#160;Module</text>
<polygon fill="#80b1d3" stroke="transparent" points="362,-10 362,-30 382,-30 382,-10 362,-10"/>
<text text-anchor="start" x="385.7812" y="-15.4" font-family="sans-serif" font-size="14.00" fill="#000000"> &#160;Bootstrap</text>
<polygon fill="#fdb462" stroke="transparent" points="459,-10 459,-30 479,-30 479,-10 459,-10"/>
<text text-anchor="start" x="482.6732" y="-15.4" font-family="sans-serif" font-size="14.00" fill="#000000"> &#160;Providers</text>
<polygon fill="#fb8072" stroke="transparent" points="555,-10 555,-30 575,-30 575,-10 555,-10"/>
<text text-anchor="start" x="578.7258" y="-15.4" font-family="sans-serif" font-size="14.00" fill="#000000"> &#160;Exports</text>
<g id="clust1" class="cluster">
<title>cluster_ManageAppModule</title>
<polygon fill="none" stroke="#000000" stroke-dasharray="1,5" points="8,-70 8,-195 786,-195 786,-70 8,-70"/>
</g>
<g id="clust2" class="cluster">
<title>cluster_ManageAppModule_declarations</title>
<polygon fill="none" stroke="#000000" points="288,-78 288,-130 778,-130 778,-78 288,-78"/>
</g>
<g id="clust6" class="cluster">
<title>cluster_ManageAppModule_imports</title>
<polygon fill="none" stroke="#000000" points="166,-78 166,-130 280,-130 280,-78 166,-78"/>
</g>
<g id="clust9" class="cluster">
<title>cluster_ManageAppModule_providers</title>
<polygon fill="none" stroke="#000000" points="16,-78 16,-130 158,-130 158,-78 16,-78"/>
</g>
<!-- ManageAppComponent -->
<g id="node1" class="node">
<title>ManageAppComponent</title>
<polygon fill="#ffffb3" stroke="#000000" points="770.0281,-122 619.9719,-122 619.9719,-86 770.0281,-86 770.0281,-122"/>
<text text-anchor="middle" x="695" y="-99.8" font-family="Times,serif" font-size="14.00" fill="#000000">ManageAppComponent</text>
</g>
<!-- ManageAppModule -->
<g id="node4" class="node">
<title>ManageAppModule</title>
<polygon fill="#8dd3c7" stroke="#000000" points="430.2451,-187 427.2451,-191 406.2451,-191 403.2451,-187 301.7549,-187 301.7549,-151 430.2451,-151 430.2451,-187"/>
<text text-anchor="middle" x="366" y="-164.8" font-family="Times,serif" font-size="14.00" fill="#000000">ManageAppModule</text>
</g>
<!-- ManageAppComponent&#45;&gt;ManageAppModule -->
<g id="edge1" class="edge">
<title>ManageAppComponent&#45;&gt;ManageAppModule</title>
<path fill="none" stroke="#000000" d="M695,-122.2843C695,-143.3211 695,-175 695,-175 695,-175 440.6073,-175 440.6073,-175"/>
<polygon fill="#000000" stroke="#000000" points="440.6073,-171.5001 430.6073,-175 440.6072,-178.5001 440.6073,-171.5001"/>
</g>
<!-- OrderMockComponent -->
<g id="node2" class="node">
<title>OrderMockComponent</title>
<polygon fill="#ffffb3" stroke="#000000" points="601.1345,-122 454.8655,-122 454.8655,-86 601.1345,-86 601.1345,-122"/>
<text text-anchor="middle" x="528" y="-99.8" font-family="Times,serif" font-size="14.00" fill="#000000">OrderMockComponent</text>
</g>
<!-- OrderMockComponent&#45;&gt;ManageAppModule -->
<g id="edge2" class="edge">
<title>OrderMockComponent&#45;&gt;ManageAppModule</title>
<path fill="none" stroke="#000000" d="M528,-122.0225C528,-139.3734 528,-163 528,-163 528,-163 440.4922,-163 440.4922,-163"/>
<polygon fill="#000000" stroke="#000000" points="440.4922,-159.5001 430.4922,-163 440.4921,-166.5001 440.4922,-159.5001"/>
</g>
<!-- UserMockComponent -->
<g id="node3" class="node">
<title>UserMockComponent</title>
<polygon fill="#ffffb3" stroke="#000000" points="436.4186,-122 295.5814,-122 295.5814,-86 436.4186,-86 436.4186,-122"/>
<text text-anchor="middle" x="366" y="-99.8" font-family="Times,serif" font-size="14.00" fill="#000000">UserMockComponent</text>
</g>
<!-- UserMockComponent&#45;&gt;ManageAppModule -->
<g id="edge3" class="edge">
<title>UserMockComponent&#45;&gt;ManageAppModule</title>
<path fill="none" stroke="#000000" d="M366,-122.1061C366,-122.1061 366,-140.991 366,-140.991"/>
<polygon fill="#000000" stroke="#000000" points="362.5001,-140.9909 366,-150.991 369.5001,-140.991 362.5001,-140.9909"/>
</g>
<!-- SharedModule -->
<g id="node5" class="node">
<title>SharedModule</title>
<polygon fill="#8dd3c7" stroke="#000000" points="272.4231,-122 269.4231,-126 248.4231,-126 245.4231,-122 173.5769,-122 173.5769,-86 272.4231,-86 272.4231,-122"/>
<text text-anchor="middle" x="223" y="-99.8" font-family="Times,serif" font-size="14.00" fill="#000000">SharedModule</text>
</g>
<!-- SharedModule&#45;&gt;ManageAppModule -->
<g id="edge4" class="edge">
<title>SharedModule&#45;&gt;ManageAppModule</title>
<path fill="none" stroke="#000000" d="M223,-122.0225C223,-139.3734 223,-163 223,-163 223,-163 291.6116,-163 291.6116,-163"/>
<polygon fill="#000000" stroke="#000000" points="291.6116,-166.5001 301.6116,-163 291.6116,-159.5001 291.6116,-166.5001"/>
</g>
<!-- MenuService -->
<g id="node6" class="node">
<title>MenuService</title>
<ellipse fill="#fdb462" stroke="#000000" cx="87" cy="-104" rx="62.5392" ry="18"/>
<text text-anchor="middle" x="87" y="-99.8" font-family="Times,serif" font-size="14.00" fill="#000000">MenuService</text>
</g>
<!-- MenuService&#45;&gt;ManageAppModule -->
<g id="edge5" class="edge">
<title>MenuService&#45;&gt;ManageAppModule</title>
<path fill="none" stroke="#000000" d="M87,-122.2843C87,-143.3211 87,-175 87,-175 87,-175 291.6414,-175 291.6414,-175"/>
<polygon fill="#000000" stroke="#000000" points="291.6415,-178.5001 301.6414,-175 291.6414,-171.5001 291.6415,-178.5001"/>
</g>
</g>
</svg>
